/* XPM */
static char *result[] = {
/* columns rows colors chars-per-pixel */
"50 50 5 1 ",
"  c black",
". c #22B14C",
"X c #00FF48",
"o c #FFF200",
"O c None",
/* pixels */
"OOOOOOOOOOOOOOOOOOOOOOOOOOOOOOOOOOOOOOOOOOOOOOOOOO",
"OOOOOOOOOOOOOOOOOOOOOOOO      OOOOOOOOOOOOOOOOOOOO",
"OOOOOOOOOOOOOOOOOOOOOO   XX     OOOOOOOOOOOOOOOOOO",
"OOOOOOOOOOOOOOOOOOOO  XXXX  oo    OOOOOOOOOOOOOOOO",
"OOOOOOOOOOOOOOOOOO  XXXXXX ooooo   OOOOOOOOOOOOOOO",
"OOOOOOOOOOOOOOOOO  XXXXXXX   oo  X  OOOOOOOOOOOOOO",
"OOOOOOOOOOOOOOOO  XXX  XXXXX    XXX  OOOOOOOOOOOOO",
"OOOOOOOOOOOOOOOO XXX    XXXXXXXXXXXX  OOOOOOOOOOOO",
"OOOOOOOOOOOOOOO XX   oo XXXXXXXXXX    OOOOOOOOOOOO",
"OOOOOOOOOOOOOO  XX oooo XXXXXXXXXX o  OOOOOOOOOOOO",
"OOOOOOOOOOOOOO XXX ooo  XXXXX    X o X OOOOOOOOOOO",
"OOOOOOOOOOOOOO XXX oo  X   XX oo     X OOOOOOOOOOO",
"OOOOOOOOOOOOOO XXX    XX o  X  oo X  XX OOOOOOOOOO",
"OOOOOOOOOOOOOO XXXXXXXXX  o  X oo X  XX OOOOOOOOOO",
"OOOOOOOOOOOOOO  XXXX   XX oo X  o XXXXXX OOOOOOOOO",
"OOOOOOOOOOOOOOO XXXX o  X oo XX   XXXXXX OOOOOOOOO",
"OOOOOOOOOOOOOOO  XXX oo X oo XXX  XXXXXX OOOOOOOOO",
"OOOOOOOOOOOOOOOO XXXX o X  o XXXXXXXXXX. OOOOOOOOO",
"OOOOOOOOOOOOOOOO   XX o XX   XXXXXXXXXX.      OOOO",
"OOOOOOOOOOOOOOOOOO  X o XXXXXXXXXXXXXXX. XXXX  OOO",
"OOOOOOOOOOOOOOOOOOO XX  XXX      XXXXXX. XX... OOO",
"OOOOOOOOOOOOOOOOOOOO XXXXXXXXXXXX XXXXX.  ....  OO",
"OOOOOOOOOOOOOOOOOOOO  XXXXXXXXXXXX XXX... ..... OO",
"OOOOOOOOOOOOOOOOOOOOO XXXXXXXXXXXX XXX... ..... OO",
"OOOOOOOOOOOOOOOOOOOOOO XXXXXXXXXXX  XX...   ... OO",
"OOOOOOOOOOOOOOOOOOOOOO XXX     XXXX XX... O  . OOO",
"OOOOOOOOOOOOOOOOOOOOOO XXX....  XXX X.... OO . OOO",
"OOOOOOOOOOOOOOOOOOOOOO XXXXXXX. XX  X.... OO   OOO",
"OOOOOOOOOOOOOOOOOOOOOO XXXXXXX.  X .X.... OOO  OOO",
"OOOOOOOOOOOOOOOOOOOOOO XXXXXXXX.   .X.... OOOOOOOO",
"OOO      OOOOOOOOOOOOO XXXXXXXXX...X..... OOOOOOOO",
"OO XXXXX  OOOOOOOOOOOO XXXXXXXXXXXXX....  OOOOOOOO",
"O    XXXX OOOOOOOOOOO XXXXXXXXXXXXX..... OOOOOOOOO",
"OOOO  XXX OOOOOOOOOOO XXXXXXXXXXXXX..... OOOOOOOOO",
"OOOOO XXX  OOOOOOOOO XXXXXXXXXXXXX..... OOOOOOOOOO",
"OOOOO XXXX OOOOOOOOO XXXXXXXXXXXX..... OOOOOOOOOOO",
"OOOOO XXXX  OOOOOOO XXXXXXXXXXXX...... OOOOOOOOOOO",
"OOOOO XXXXX  OOOO  XXXXXXXXXXXX...... OOOOOOOOOOOO",
"OOOOOO XXXXXX     XXXXXXXXXXXX...... OOOOOOOOOOOOO",
"OOOOOO .XXXXXXXXXXXXXXXXXXXX....... OOOOOOOOOOOOOO",
"OOOOOO ..XXXXXXXXXXXXXXXXX........ OOOOOOOOOOOOOOO",
"OOOOOOO ..XXXXXXXXXXXXX.......... OOOOOOOOOOOOOOOO",
"OOOOOOO ....XXXXXXXX...........  OOOOOOOOOOOOOOOOO",
"OOOOOOO  .....................  OOOOOOOOOOOOOOOOOO",
"OOOOOOOOO   ...............    OOOOOOOOOOOOOOOOOOO",
"OOOOOOOOOOOO     .....     OOOOOOOOOOOOOOOOOOOOOOO",
"OOOOOOOOOOOOOOOO       OOOOOOOOOOOOOOOOOOOOOOOOOOO",
"OOOOOOOOOOOOOOOOOOOOOOOOOOOOOOOOOOOOOOOOOOOOOOOOOO",
"OOOOOOOOOOOOOOOOOOOOOOOOOOOOOOOOOOOOOOOOOOOOOOOOOO",
"OOOOOOOOOOOOOOOOOOOOOOOOOOOOOOOOOOOOOOOOOOOOOOOOOO"
};
