/* XPM */
static char *_631d77ae1b54e8ef66bf7cc8341c1a1cqzql0rYle3p5XWE[] = {
/* columns rows colors chars-per-pixel */
"100 100 11 1 ",
"  c None",
". c black",
"X c gray20",
"o c #700426",
"O c #2C0647",
"+ c #3F165C",
"@ c #464646",
"# c #990030",
"$ c #9C5A3C",
"% c #8A8103",
"& c #FFF200",
/* pixels */
"                                                                                                    ",
"                                                                                                    ",
"                                                                                                    ",
"                                                                                                    ",
"                                                                                                    ",
"                                              .......                                               ",
"                                                ..###..                                             ",
"                                                  ..###..                                           ",
"                            ............            .####.                                          ",
"                               .....####..           .####.                                         ",
"                                    ..####.           ..###.                                        ",
"                                      ..###.            .###.                                       ",
"                                        .###.            .###.  ............                        ",
"                                         .###.. ..........####...+++++++++++.....                   ",
"                                          .####....++++..#######.++++++++++++++++....               ",
"                                           .####..+++++.######..+++++++++++++++++++++..             ",
"                       ........       ......##...+++++++......+++++++++++++++++++++++++..           ",
"                    ...########..   ..++++.....++++++++++++++++++++++++++++++++++++++++++..         ",
"                   .#############....++++++++++++++++++++++++++++++++++++++++++++++++++++++.        ",
"                 ..#################.++++++++++++++++++++++++++++++++++++++++++++++++++++++.        ",
"                .#####...##########..+++++++++++++++++++++++++++++++++++++++++++++++++++++++..      ",
"               .......   ....######.++++++++++++++++++++++++++++++++++++++++++++++++++++++++++.     ",
"              ..             .#####.+++++++++++++++++++++++++++++++++++++++++++++++++++++++++++.    ",
"             ..               .###..++++++++++++++++++++++++++++++++++++++++++++++++++++++++++++.   ",
"             .                ..#..++++++++++++++++++++++++++++++++++++++++++++++++...+++++++++++.  ",
"            .                .....+++++++++++++++++++++++++++++++++++++++++++++++..ooo.+++++++++++. ",
"                            ..+++++++++++++++++++++++++.++++++++++++++++++++++++..ooooo.++++++++++. ",
"                            .++++++++++++++++++++++++++.++++++++++++++++++++++..o...oooo.+++++++++. ",
"                           .+++++++++++++++++++++++++++.+++++++++++++++++++++.oo.%%%.ooo.++++++++.. ",
"                           .+++++++++++++++++++++++++++.++++++++++++++++++++.oo.%%%%%.oo.++++++++.. ",
"                          .+++++++++++++++++++++++++++.+++++++++++++++++++++.oo.%%..%.oo.+++++++.o. ",
"                           .++++++++++++.++++++++++++.+++++++++++++++++++++.oo#.&&..&.#o.++++++.oo#.",
"                           ..+++++++++++.++++++++++++.++++++++++++++++++++++.###.&&&.###.++++++.o##.",
"                       ......+++++++++++.++++++++++++.+++++++++++++++++++++++..##...###.++++++.oo##.",
"                     ..#####.+++++++++++.++++++++++++.+++++++++++++++++++++++++.#####..++++++.oo###.",
"                  ...#######.+++++++++++.+++++++++++.+++++++++++++++++++++++++++.....+++++++.oo####.",
"                 .#########..+++++++++++.+++++++++++.+++++++++++++++++++++++++++++++++++++..oo#####.",
"                .##########.++++++++++++O.++++++++++.++++++++++++++++++++++++++++++++++++.ooo######.",
"               .#####...##..++++++++++++O.++++++++++O.+++++++++++++++++++++++++++++++++..oo#######. ",
"              .###...   ...++++.++++++++OO.+++++++++O.++++++++++++++++++++++++++++++++.ooo########. ",
"             .###.      ...++++O.++++++++OO.++++++++O.+++++++++++++++++++++++++++++++.oo#########.  ",
"            .###.       .++++++OO.++++++++OO.+++++++OO.+++++++++++++++++++++++++++++.oo#########.   ",
"            .##.        .+++++++OO.++++++++OO.+++++++OO.+++++++++++++++++++++++++++.oo##########.   ",
"            .#.         .++++++++OO.++++++++OO.+++++++OO.+++++++++++++++++++++++++.oo##########.    ",
"           .#.          .+++++++++OO.++++++++OO...+++++OO.++++++++++++++++++++++++.o#########..     ",
"           .#.          .++++++++++OO..+++++++OOOO++++++OO.++++++++++++++++++++++....#######.       ",
"           ..           .+++++++++++OOO+++++++++++++.++++OO.+++++++++++++++++++++.OOO..####.        ",
"            .           .++++++++++++++++++++++++++.++++++++++++++++++++++++++++.OOOOOO.##.         ",
"                        .+++++++++.+++++++++++++++.++++++++++++++++++++++++++++.OOOOOO. ..          ",
"                        .+++++++++.+++++++++++++++.+++++++++..+++++++++++++++++.OOOOO.              ",
"                        .+++++++++.+++++++++++++++.++++++++.  .+++++++++++++++.OOOOO.               ",
"                        .+++++++++.++++++++++++++.+++++++++.  ..+++++++++++++.OOOOO.                ",
"                        .+++++++++.++++++++++++++.++++++++.    .++++++++++++.OOOOO.                 ",
"                        .+++++++++.++++++++++++++.++++++++.     .++++++++++.OOOOO.                  ",
"                        .+++++++++.++++++++++++++.++++++++.      .+++++++++..OOO.                   ",
"                        .+++++++++.++++++++++++++.++++++++.      .++++++++...OO.                    ",
"                       .+++++++++.+++++++++++++++.++++++++.       .+.+++++.o...                     ",
"                       .+++++++++.+++++++++++++++.++++++++.        . .+++.ooo.....                  ",
"                       .+++++++++.+++++++++++++++.+++++++++.         .+++.o#####.                   ",
"                      .+++++++++.++++++++++++++++.+++++++++.         .+++.#####..                   ",
"                      .+++++++++.++++++++++++++++.+++++++++.          .+...###..                    ",
"                      .+++++++++.++++++++++++++++.+++++++++.           .  .....                     ",
"                      .++++++++.+++++++++++++++++.+++++++++.                                        ",
"                      .++++++++.++++++++++++++++++.+++++++++.                                       ",
"                     .+++++++++.++++++++++++++++++.+++++++++.                                       ",
"                     .++++++++.+++++++++++++++++++.++++++++++.                                      ",
"                     .++++++++.+++++++++++++++++++.++++++++++.                                      ",
"                    .++++++++.++++++++++++++++++++.+++++++++++.                                     ",
"                    .++++++++.++++++++++++++++++++.++++++++++++.                                    ",
"                    .+++++++.++++++++++++++++++++++.++++++++++++.                                   ",
"                   .++++++++.++++++++++++++++++++++.+++++++++++++.                                  ",
"                   .++++++++.++++++++++++++++++++++.+++++++++++++.                                  ",
"                  .+++++++++.++++++++++++++++++++++.++++++++++++++.                                 ",
"                  .+++++++++.++++++++++++++++++++++.+++++++++++++++.                                ",
".............................++++++++++++++++++++++.............................................    ",
".$$$$$$$$$$$$$$$$$$$$$$$$$$$.++++++++++++++++++++++.$$$$$$$$$$$$$$$$$$$$.@@@@@@@@@@@@@@@@@@@..      ",
"..............................+++++++++++++++++++++......................@@@@@@@@@@@@@@@@@..        ",
"               .OOOOOOOOOOOOOO.+++++++++++++++++++.OOOOOOOOOOOOOOOOOO.  .XXXXXXXXXXXXXXX..          ",
"               .OOOOOOOOOOOOOOO.+++++++++++++++++.OOOOOOOOOOOOOOOOOOOO.  ...............            ",
"              .+++++++++++++++OO..++++++++++++++.OO++++++++++++++++++++.                            ",
"              .++++++++.+++++++OOO..+++++++++++.OO+++++++++++++++++++++.                            ",
"              .++++++++.+++++++++OOO.+++++++++.OO+++++++.+++++++++++++++.                           ",
"             .+++++++++.++++++++++OOO.........OO++++++++.+++++++++++++++.                           ",
"             .++++++++.O+++++++++++OOOOOOOOOOOO+++++++++.++++++++++++++++.                          ",
"            .++++++++.OO++++++++++++OOOOOOOOOO++++++++++.+++++++++++++++++.                         ",
"            ..+++++++.O+++++++++++.+++++++++++++++++++++.++++++++++++++++++.                        ",
"             .++++++.OO+++++++++++.+++++++++++++++++++++.++++++++++++++++++.                        ",
"              ......OO++++++++++++.+++++++++++++++++++++.+++++++++++++++++++.                       ",
"                   ...++++++++++++O.++++++++++++++++++++.+++++++++++++++++++.                       ",
"                     ..+++++++++++O.++++++++++++++++++++O.+++++++++++++++++..                       ",
"                       .++++++++++O.++++++++++++++++++++OO.+++++++++++++++..                        ",
"                        .+++++++++OO.+++++++++++++++++++O...++++++++++++++.                         ",
"                         .+++++++++OO.++....+++++++++++... .......++++++++.                         ",
"                          .++++.......++.   .....+++....          .....+..                          ",
"                           ....       ..        ....                   .                            ",
"                                                                                                    ",
"                                                                                                    ",
"                                                                                                    ",
"                                                                                                    ",
"                                                                                                    "
};
