/* XPM */
static char *_d595d9fcaa04f779aff26c76380264aJpJO58yG7bjDZdxF[] = {
/* columns rows colors chars-per-pixel */
"100 100 10 1 ",
"  c None",
". c black",
"X c gray20",
"o c #464646",
"O c #464953",
"+ c #22B14C",
"@ c #00FF48",
"# c #FFF200",
"$ c gray95",
"% c white",
/* pixels */
"                                                ........                                            ",
"                                                ........                                            ",
"                                            ....OOOOOOOO....                                        ",
"                                            ....OOOOOOOO....                                        ",
"                                          ....OOOOOOOOOOOO....                                      ",
"                                          ....OOOOOOOOOOOO....                                      ",
"                                          ....OOOOOOOOOOOOOO..                                      ",
"                                          ....OOOOOOOOOOOOOO..                                      ",
"                                        ....OOOOOOOOOOOOOOOOOO..                                    ",
"                                        ....OOOOOOOOOOOOOOOOOO..                                    ",
"                                      ....OOOOOOOOOOOOOOOOOOOO....                                  ",
"                                      ....OOOOOOOOOOOOOOOOOOOO....                                  ",
"                                    ....OOOOOOOOOOOOOOOOOOOOOOOO....                                ",
"                                    ....OOOOOOOOOOOOOOOOOOOOOOOO....                                ",
"                                  ....OOOOOOOOOOOOOOOOOOOOOOOOOOOO....                              ",
"                                  ....OOOOOOOOOOOOOOOOOOOOOOOOOOOO....                              ",
"                                ....OOOOOOOOOOOOOOOOOOOOOOOOOOOOOOOO....                            ",
"                                ....OOOOOOOOOOOOOOOOOOOOOOOOOOOOOOOO....                            ",
"                              ....OOOOOOOOOOOOOOOOOOOOOOOOOOOOOOOOOOOO....                          ",
"                              ....OOOOOOOOOOOOOOOOOOOOOOOOOOOOOOOOOOOO....                          ",
"                            ....OOOO....OOOOOOOOOOOOOOOOOOOOOOOO....OOOO....                        ",
"                            ....OOOO....OOOOOOOOOOOOOOOOOOOOOOOO....OOOO....                        ",
"                            ..OOOOOOXX....OOOOOOOOOOOOOOOOOOOO....XXOOOOOO..                        ",
"                            ..OOOOOOXX....OOOOOOOOOOOOOOOOOOOO....XXOOOOOO..                        ",
"                            ..OOOOOOOOXXXX..OOOOOOOOOOOOOOOO..XXXXOOOOOOOO..                        ",
"                            ..OOOOOOOOXXXX..OOOOOOOOOOOOOOOO..XXXXOOOOOOOO..                        ",
"                            ..OOOOOOOOOOXXXX..OOOOOOOOOOOO..XXXXOOOOOOOOOO..                        ",
"                            ..OOOOOOOOOOXXXX..OOOOOOOOOOOO..XXXXOOOOOOOOOO..                        ",
"                            ..OOOOOOOOOOOOXX....OOOOOOOO....XXOOOOOOOOOOOO..                        ",
"                            ..OOOOOOOOOOOOXX....OOOOOOOO....XXOOOOOOOOOOOO..                        ",
"                            ..OOOOOOOOOOOOXXXX..OOOOOOOO..XXXXOOOOOOOOOOOO..                        ",
"                            ..OOOOOOOOOOOOXXXX..OOOOOOOO..XXXXOOOOOOOOOOOO..                        ",
"                            ..OOOOOOOOOOOOOOXXXX..OOOO..XXXXOOOOOOOOOOOOOO..                        ",
"                            ..OOOOOOOOOOOOOOXXXX..OOOO..XXXXOOOOOOOOOOOOOO..                        ",
"                            ..OOOOOOOOOOOOOOOOXXXX....XXXXOOOOOOOOOOOOOOOO..                        ",
"                            ..OOOOOOOOOOOOOOOOXXXX....XXXXOOOOOOOOOOOOOOOO..                        ",
"                            ..OOOOOOOOOOOOOOOOOOXXXXXXXXOOOOOOOO........OO..                        ",
"                            ..OOOOOOOOOOOOOOOOOOXXXXXXXXOOOOOOOO........OO..                        ",
"                            ..OO......OOOOOOOOOOOOXXXXOOOOOOOOOO..XXXXXXOO..                        ",
"                            ..OO......OOOOOOOOOOOOXXXXOOOOOOOOOO..XXXXXXOO..                        ",
"                            ..OOXXXX....OOOOOOOOOOOOOOOOOOOO......XXOOOOOO..                        ",
"                            ..OOXXXX....OOOOOOOOOOOOOOOOOOOO......XXOOOOOO..                        ",
"                            ..OOOOOOXX....OOOOOOOOOOOOOOOOOOXXXXXXOOOOOOOO..                        ",
"                            ..OOOOOOXX....OOOOOOOOOOOOOOOOOOXXXXXXOOOOOOOO..                        ",
"                          ..OOOOOOOOOOXXXXOOOOOOOOOOOOOOOOOOOOOOOOOOOOOOOOOO..                      ",
"                          ..OOOOOOOOOOXXXXOOOOOOOOOOOOOOOOOOOOOOOOOOOOOOOOOO..                      ",
"                          ..OOOO..OOOOOOOOOOOOOOOOOOOO..OOOOOOOOOO..OOOOOOOO..                      ",
"                          ..OOOO..OOOOOOOOOOOOOOOOOOOO..OOOOOOOOOO..OOOOOOOO..                      ",
"                          ..OOOO..OOOOOOOOOOOOOOOOOOOO..OOOOOOOOOO..OOOOOOOO..                      ",
"                          ..OOOO..OOOOOOOOOOOOOOOOOOOO..OOOOOOOOOO..OOOOOOOO..                      ",
"                          ..OO....OOOOOO..OOOOOOOOOOOO..OOOOOOOOOO..OOOOOOOO..                      ",
"                          ..OO....OOOOOO..OOOOOOOOOOOO..OOOOOOOOOO..OOOOOOOO..                      ",
"                          ..OO..XXOOOOOO..OOOOOOOOOO..XXOOOOOOOOOO..OOOOOOOO..                      ",
"                          ..OO..XXOOOOOO..OOOOOOOOOO..XXOOOOOOOOOO..OOOOOOOO..                      ",
"                          ..OO..XXOOOOOO....OOOO......XXOO..OOOOOOXX..OOOOOO..                      ",
"                          ..OO..XXOOOOOO....OOOO......XXOO..OOOOOOXX..OOOOOO..                      ",
"                            ......OOOOOOXX..OO..      ..OO..OOOOOOXX........                        ",
"                            ......OOOOOOXX..OO..      ..OO..OOOOOOXX........                        ",
"                                ..OOOOOOXX....          ....OOOOOOXX..%%                            ",
"                                ..OOOOOOXX....          ....OOOOOOXX..%%                            ",
"                                  ....OOXX..              ....OOOO....%%                            ",
"                                  ....OOXX..              ....OOOO....%%                            ",
"                                    ..OO....                ..OO....  %%                            ",
"                                    ..OO....                ..OO....  %%                            ",
"                                    ......                  ....      %%                            ",
"                                    ......                  ....      %%                            ",
"                                      ....                  ..      %%%%%%                          ",
"                                      ....                  ..      %%%%%%                          ",
"                                        ..                          ..$$..                          ",
"                                        ..                          ..$$..                          ",
"                                        ..                          ..  ..                          ",
"                                        ..                          ..  ..                          ",
"                                                                  ..........                        ",
"                                                                  ..........                        ",
"                                                              ..oo++++@@@@++oo..                    ",
"                                                              ..oo++++@@@@++oo..                    ",
"                                                                ..++##@@##@@..                      ",
"                                                                ..++##@@##@@..                      ",
"                                                                ..++@@@@##++..                      ",
"                                                                ..++@@@@##++..                      ",
"                                                              oo..oo......oo..oo                    ",
"                                                              oo..oo......oo..oo                    ",
"                                                                ..++@@@@@@++..                      ",
"                                                                ..++@@@@@@++..                      ",
"                                                                ..@@@@####@@..                      ",
"                                                                ..@@@@####@@..                      ",
"                                                              oo..++@@##++++..oo                    ",
"                                                              oo..++@@##++++..oo                    ",
"                                                                oo..........oo                      ",
"                                                                oo..........oo                      ",
"                                                                ..          ..                      ",
"                                                                ..          ..                      ",
"                                                                                                    ",
"                                                                                                    ",
"                                                                                                    ",
"                                                                                                    ",
"                                                                                                    ",
"                                                                                                    ",
"                                                                                                    ",
"                                                                                                    "
};
