/* XPM */
static char *result[] = {
/* columns rows colors chars-per-pixel */
"100 100 12 1 ",
"  c black",
". c gray1",
"X c gray20",
"o c gray27",
"O c #464646",
"+ c gray28",
"@ c #ED1C24",
"# c #22B14C",
"$ c #00FF48",
"% c #FFF200",
"& c white",
"* c None",
/* pixels */
"********************************************        ************************************************",
"********************************************        ************************************************",
"****************************************    ++++++++    ********************************************",
"****************************************    ++++++++    ********************************************",
"**************************************    ++++++++++++    ******************************************",
"**************************************    ++++++++++++    ******************************************",
"**************************************  ++        ++      ******************************************",
"**************************************  ++        ++      ******************************************",
"************************************  ++                    ****************************************",
"************************************  ++                    ****************************************",
"**********************************    ++                      **************************************",
"**********************************    ++                      **************************************",
"********************************    oo        @@@@  @@@@        ************************************",
"********************************    oo        @@@@  @@@@        ************************************",
"******************************    ++          @@@@  @@@@          **********************************",
"******************************    ++          @@@@  @@@@          **********************************",
"****************************    oo                                  ********************************",
"****************************    oo                                  ********************************",
"**************************    ++++++++++++                  ++++++    ******************************",
"**************************    ++++++++++++                  ++++++    ******************************",
"************************    ++    ++++++++++            ++++++++  ++    ****************************",
"************************    ++    ++++++++++            ++++++++  ++    ****************************",
"************************  ++++XX    ++++++++++++++++++++++++      ++++  ****************************",
"************************  ++++XX    ++++++++++++++++++++++++      ++++  ****************************",
"************************  ++++++XX      ++++++..  ++++++      XXXX++++  ****************************",
"************************  ++++++XX      ++++++..  ++++++      XXXX++++  ****************************",
"************************  ++++++++XXXX      ++      ++  XXXXXX++++++++  ****************************",
"************************  ++++++++XXXX      ++      ++  XXXXXX++++++++  ****************************",
"************************  ++++++++++++XXXXXX++  &&  ++XX++++++++++++    ****************************",
"************************  ++++++++++++XXXXXX++  &&  ++XX++++++++++++    ****************************",
"************************    ++++++++++++++++++  &&  ++++++++++++        ****************************",
"************************    ++++++++++++++++++  &&  ++++++++++++        ****************************",
"************************      ++++++++++++++    &&    ++++++      XXXX  ****************************",
"************************      ++++++++++++++    &&    ++++++      XXXX  ****************************",
"************************  XXXX      ++++++    &&&&&&  ++++++XXXXXXXX++  ****************************",
"************************  XXXX      ++++++    &&&&&&  ++++++XXXXXXXX++  ****************************",
"************************  ++++XXXXXX++++++      &&      ++++++++++++++  ****************************",
"************************  ++++XXXXXX++++++      &&      ++++++++++++++  ****************************",
"************************  ++++++++++++++++  &&&&&&&&&&    ++++++++++++  ****************************",
"************************  ++++++++++++++++  &&&&&&&&&&    ++++++++++++  ****************************",
"************************  ++++++++++++++        &&        ++++++++++++  ****************************",
"************************  ++++++++++++++        &&        ++++++++++++  ****************************",
"************************  ++  ++++++++++    &&&&&&&&&&    ++++++++++++  ****************************",
"************************  ++  ++++++++++    &&&&&&&&&&    ++++++++++++  ****************************",
"**********************  ++++  ++++++++++  &&    &&    &&  ++++++  ++++++  **************************",
"**********************  ++++  ++++++++++  &&    &&    &&  ++++++  ++++++  **************************",
"**********************  ++++  ++++++++++        &&        ++++++  ++++++  **************************",
"**********************  ++++  ++++++++++        &&        ++++++  ++++++  **************************",
"**********************  ++++  ++++++++++    &&&&&&&&&&    ++++++  ++++++  **************************",
"**********************  ++++  ++++++++++    &&&&&&&&&&    ++++++  ++++++  **************************",
"**********************  ++++XX  ++++++oo  &&&&      &&&&  ++++++    ++++  **************************",
"**********************  ++++XX  ++++++oo  &&&&      &&&&  ++++++    ++++  **************************",
"**********************  ++++XX  ++++++oo  &&          &&  ++++++XX  ++++  **************************",
"**********************  ++++XX  ++++++oo  &&          &&  ++++++XX  ++++  **************************",
"**********************  ++++XX  ++++  oo                  ++  ++XX    ++  **************************",
"**********************  ++++XX  ++++  oo                  ++  ++XX    ++  **************************",
"************************        ++++  oo  ..  ******      ++  ++XX      ****************************",
"************************        ++++  oo  ..  ******      ++  ++XX      ****************************",
"****************************&&  oooo  oo    **********    ++        ********************************",
"****************************&&  oooo  oo    **********    ++        ********************************",
"****************************&&    ooXX    **************  ++XX    **********************************",
"****************************&&    ooXX    **************  ++XX    **********************************",
"****************************&&**    XX  ****************    XX  ************************************",
"****************************&&**    XX  ****************    XX  ************************************",
"****************************&&******    ******************      ************************************",
"****************************&&******    ******************      ************************************",
"**************************&&&&&&******  ******************    **************************************",
"**************************&&&&&&******  ******************    **************************************",
"**************************&&  &&**************************  ****************************************",
"**************************&&  &&**************************  ****************************************",
"**************************  **  **************************  ****************************************",
"**************************  **  **************************  ****************************************",
"************************          ******************************************************************",
"************************          ******************************************************************",
"********************  OO##$$%%####OO  **************************************************************",
"********************  OO##$$%%####OO  **************************************************************",
"**********************  ##$$%%%%$$  ****************************************************************",
"**********************  ##$$%%%%$$  ****************************************************************",
"**********************  ####%%$$##  ****************************************************************",
"**********************  ####%%$$##  ****************************************************************",
"********************OO  OO      OO  OO**************************************************************",
"********************OO  OO      OO  OO**************************************************************",
"**********************  ##########  ****************************************************************",
"**********************  ##########  ****************************************************************",
"**********************  ##$$%%%%##  ****************************************************************",
"**********************  ##$$%%%%##  ****************************************************************",
"********************OO  ##$$%%%%$$  OO**************************************************************",
"********************OO  ##$$%%%%$$  OO**************************************************************",
"**********************OO          OO****************************************************************",
"**********************OO          OO****************************************************************",
"**********************  **********  ****************************************************************",
"**********************  **********  ****************************************************************",
"****************************************************************************************************",
"****************************************************************************************************",
"****************************************************************************************************",
"****************************************************************************************************",
"****************************************************************************************************",
"****************************************************************************************************",
"****************************************************************************************************",
"****************************************************************************************************"
};
