/* XPM */
static char *result[] = {
/* columns rows colors chars-per-pixel */
"100 100 8 1 ",
"  c black",
". c gray20",
"X c #464646",
"o c #ED1C24",
"O c #22B14C",
"+ c #00FF48",
"@ c #FFF200",
"# c None",
/* pixels */
"####################################################################################################",
"####################################################################################################",
"####################################################################################################",
"####################################################################################################",
"########################################                ############################################",
"########################################                ############################################",
"######################################    XXXXXXXXXX        ########################################",
"######################################    XXXXXXXXXX        ########################################",
"####################################  XXXXXXXXXXXXXXXXXXXX    ######################################",
"####################################  XXXXXXXXXXXXXXXXXXXX    ######################################",
"####################################  XX  XXXXXXXXXXXXXXXXXX    ####################################",
"####################################  XX  XXXXXXXXXXXXXXXXXX    ####################################",
"####################################        XXXXXXXXXXXXXXXXXXXX  ##################################",
"####################################        XXXXXXXXXXXXXXXXXXXX  ##################################",
"##################################            XXXXXXXXXXXXXXXXXX  ##################################",
"##################################            XXXXXXXXXXXXXXXXXX  ##################################",
"##################################oooo          XXXXXXXXXXXXXXXX  ##################################",
"##################################oooo          XXXXXXXXXXXXXXXX  ##################################",
"##################################oooo          XXXXXXXXXXXXXXXXXX  ################################",
"##################################oooo          XXXXXXXXXXXXXXXXXX  ################################",
"##################################            XXXXXXXXXXXXXXXXXXXX  ################################",
"##################################            XXXXXXXXXXXXXXXXXXXX  ################################",
"##################################        XXXXXXXXXXXXXXXXXXXXXXXX  ################################",
"##################################        XXXXXXXXXXXXXXXXXXXXXXXX  ################################",
"##################################    XXXXXXXXXXXXXXXXXXXXXXXXXXXX    ##############################",
"##################################    XXXXXXXXXXXXXXXXXXXXXXXXXXXX    ##############################",
"##################################  XXXXXXXXXXXXXXXXXXXXXXXXXXXXXXXX  ##############################",
"##################################  XXXXXXXXXXXXXXXXXXXXXXXXXXXXXXXX  ##############################",
"##################################  XXXXXXXXXXXXXX  XXXXXXXXXXXXXXXX  ##############################",
"##################################  XXXXXXXXXXXXXX  XXXXXXXXXXXXXXXX  ##############################",
"################################  XXXXXXXXXXXXXX  ..XXXXXXXXXXXXXXXX  ##############################",
"################################  XXXXXXXXXXXXXX  ..XXXXXXXXXXXXXXXX  ##############################",
"################################  XXXXXXXXXXXX  ..XXXXXX    XXXXXXXX  ##############################",
"################################  XXXXXXXXXXXX  ..XXXXXX    XXXXXXXX  ##############################",
"################################  XX          ..XXXXXXXX..    XXXX  ################################",
"################################  XX          ..XXXXXXXX..    XXXX  ################################",
"################################  XX..........XXXXXXXXXX..  ##    ##################################",
"################################  XX..........XXXXXXXXXX..  ##    ##################################",
"##################################  XXXXXXXXXXXXXXXXXXXXXX  ##  ####################################",
"##################################  XXXXXXXXXXXXXXXXXXXXXX  ##  ####################################",
"##################################  XXXXXXXXXXXXXXXXXX  XX  ########################################",
"##################################  XXXXXXXXXXXXXXXXXX  XX  ########################################",
"##################################  XXXXXXXXXXXXXXXX  ..XX  ########################################",
"##################################  XXXXXXXXXXXXXXXX  ..XX  ########################################",
"##################################  XXXXXXXX        ..XXXX  ########################################",
"##################################  XXXXXXXX        ..XXXX  ########################################",
"##################################  XXXXXXXX........XXXXXX  ########################################",
"##################################  XXXXXXXX........XXXXXX  ########################################",
"##################################  XXXXXXXXXXXXXXXXXXXXXX  ########################################",
"##################################  XXXXXXXXXXXXXXXXXXXXXX  ########################################",
"##################################  XXXXXXXX  XXXXXX  XX  ##########################################",
"##################################  XXXXXXXX  XXXXXX  XX  ##########################################",
"####################################  XXXXXX  XXXXXX..    ##########################################",
"####################################  XXXXXX  XXXXXX..    ##########################################",
"####################################  XXXX  XXXXXXXXXX..  ##########################################",
"####################################  XXXX  XXXXXXXXXX..  ##########################################",
"####################################  XXXX  XXXXXXXXXXXX  ##########################################",
"####################################  XXXX  XXXXXXXXXXXX  ##########################################",
"##################################  XXXXXX  XXXXXXXXXXXX  ##########################################",
"##################################  XXXXXX  XXXXXXXXXXXX  ##########################################",
"##################################  XXXXXX  XXXXXXXXXXXX  ##########################################",
"##################################  XXXXXX  XXXXXXXXXXXX  ##########################################",
"##################################  XXXX  XXXXXXXXXXXXXX  ##########################################",
"##################################  XXXX  XXXXXXXXXXXXXX  ##########################################",
"##################################  XXXX  XXXXXXXXXXXXXX  ##########################################",
"##################################  XXXX  XXXXXXXXXXXXXX  ##########################################",
"##################################  XXXX  XXXXXXXX  XX    ##########################################",
"##################################  XXXX  XXXXXXXX  XX    ##########################################",
"##################################  XXXX..        ..    ############################################",
"##################################  XXXX..        ..    ############################################",
"##################################    XXXX........XX  ##############################################",
"##################################    XXXX........XX  ##############################################",
"####################################      XXXXXXXX  ################################################",
"####################################      XXXXXXXX  ################################################",
"########################################  XXXXXX    ################################################",
"########################################  XXXXXX    ################################################",
"########################################    XX    ##################################################",
"########################################    XX    ##################################################",
"######################################  ++      OO  ################################################",
"######################################  ++      OO  ################################################",
"######################################  ++@@  ++++  ################################################",
"######################################  ++@@  ++++  ################################################",
"######################################  OO@@  @@OO  ################################################",
"######################################  OO@@  @@OO  ################################################",
"########################################  XXXXXX  ##################################################",
"########################################  XXXXXX  ##################################################",
"######################################  OO@@  @@++  ################################################",
"######################################  OO@@  @@++  ################################################",
"######################################  ++@@  @@OO  ################################################",
"######################################  ++@@  @@OO  ################################################",
"######################################  @@OO  ++OO  ################################################",
"######################################  @@OO  ++OO  ################################################",
"########################################XX  XX  XX##################################################",
"########################################XX  XX  XX##################################################",
"######################################  ####  ####  ################################################",
"######################################  ####  ####  ################################################",
"####################################################################################################",
"####################################################################################################",
"####################################################################################################",
"####################################################################################################"
};
