/* XPM */
static char *bf1c7944c9bc4e33ef38f669bc9ee8belI1ss66bTcSOKd5g[] = {
/* columns rows colors chars-per-pixel */
"100 100 8 1 ",
"  c None",
". c black",
"X c gray20",
"o c #464646",
"O c #ED1C24",
"+ c #22B14C",
"@ c #00FF48",
"# c #FFF200",
/* pixels */
"                                        ................                                            ",
"                                        ................                                            ",
"                                      ....oooooooooo........                                        ",
"                                      ....oooooooooo........                                        ",
"                                    ..oooooooooooooooooooo....                                      ",
"                                    ..oooooooooooooooooooo....                                      ",
"                                    ..oo..oooooooooooooooooo....                                    ",
"                                    ..oo..oooooooooooooooooo....                                    ",
"                                    ........oooooooooooooooooooo..                                  ",
"                                    ........oooooooooooooooooooo..                                  ",
"                                  ............oooooooooooooooooo..                                  ",
"                                  ............oooooooooooooooooo..                                  ",
"                                  OOOO..........oooooooooooooooo..                                  ",
"                                  OOOO..........oooooooooooooooo..                                  ",
"                                  OOOO..........oooooooooooooooooo..                                ",
"                                  OOOO..........oooooooooooooooooo..                                ",
"                                  ............oooooooooooooooooooo..                                ",
"                                  ............oooooooooooooooooooo..                                ",
"                                  ........oooooooooooooooooooooooo..                                ",
"                                  ........oooooooooooooooooooooooo..                                ",
"                                  ....oooooooooooooooooooooooooooo....                              ",
"                                  ....oooooooooooooooooooooooooooo....                              ",
"                                  ..oooooooooooooooooooooooooooooooo..                              ",
"                                  ..oooooooooooooooooooooooooooooooo..                              ",
"                                  ..oooooooooooooo..oooooooooooooooo..                              ",
"                                  ..oooooooooooooo..oooooooooooooooo..                              ",
"                                ..oooooooooooooo..XXoooooooooooooooo..                              ",
"                                ..oooooooooooooo..XXoooooooooooooooo..                              ",
"                                ..oooooooooooo..XXoooooo....oooooooo..                              ",
"                                ..oooooooooooo..XXoooooo....oooooooo..                              ",
"                                ..oo..........XXooooooooXX....oooo..                                ",
"                                ..oo..........XXooooooooXX....oooo..                                ",
"                                ..ooXXXXXXXXXXooooooooooXX..  ....                                  ",
"                                ..ooXXXXXXXXXXooooooooooXX..  ....                                  ",
"                                  ..oooooooooooooooooooooo..  ..                                    ",
"                                  ..oooooooooooooooooooooo..  ..                                    ",
"                                  ..oooooooooooooooooo..oo..                                        ",
"                                  ..oooooooooooooooooo..oo..                                        ",
"                                  ..oooooooooooooooo..XXoo..                                        ",
"                                  ..oooooooooooooooo..XXoo..                                        ",
"                                  ..oooooooo........XXoooo..                                        ",
"                                  ..oooooooo........XXoooo..                                        ",
"                                  ..ooooooooXXXXXXXXoooooo..                                        ",
"                                  ..ooooooooXXXXXXXXoooooo..                                        ",
"                                  ..oooooooooooooooooooooo..                                        ",
"                                  ..oooooooooooooooooooooo..                                        ",
"                                  ..oooooooo..oooooo..oo..                                          ",
"                                  ..oooooooo..oooooo..oo..                                          ",
"                                    ..oooooo..ooooooXX....                                          ",
"                                    ..oooooo..ooooooXX....                                          ",
"                                    ..oooo..ooooooooooXX..                                          ",
"                                    ..oooo..ooooooooooXX..                                          ",
"                                    ..oooo..oooooooooooo..                                          ",
"                                    ..oooo..oooooooooooo..                                          ",
"                                  ..oooooo..oooooooooooo..                                          ",
"                                  ..oooooo..oooooooooooo..                                          ",
"                                  ..oooooo..oooooooooooo..                                          ",
"                                  ..oooooo..oooooooooooo..                                          ",
"                                  ..oooo..oooooooooooooo..                                          ",
"                                  ..oooo..oooooooooooooo..                                          ",
"                                  ..oooo..oooooooooooooo..                                          ",
"                                  ..oooo..oooooooooooooo..                                          ",
"                                  ..oooo..oooooooo..oo....                                          ",
"                                  ..oooo..oooooooo..oo....                                          ",
"                                  ..ooooXX........XX....                                            ",
"                                  ..ooooXX........XX....                                            ",
"                                  ....ooooXXXXXXXXoo..                                              ",
"                                  ....ooooXXXXXXXXoo..                                              ",
"                                    ......oooooooo..                                                ",
"                                    ......oooooooo..                                                ",
"                                        ..oooooo....                                                ",
"                                        ..oooooo....                                                ",
"                                        ....oo....                                                  ",
"                                        ....oo....                                                  ",
"                                      ..@@......++..                                                ",
"                                      ..@@......++..                                                ",
"                                      ..@@##..@@@@..                                                ",
"                                      ..@@##..@@@@..                                                ",
"                                      ..++##..##++..                                                ",
"                                      ..++##..##++..                                                ",
"                                        ..oooooo..                                                  ",
"                                        ..oooooo..                                                  ",
"                                      ..++##..##@@..                                                ",
"                                      ..++##..##@@..                                                ",
"                                      ..@@##..##++..                                                ",
"                                      ..@@##..##++..                                                ",
"                                      ..##++..@@++..                                                ",
"                                      ..##++..@@++..                                                ",
"                                        oo..oo..oo                                                  ",
"                                        oo..oo..oo                                                  ",
"                                      ..    ..    ..                                                ",
"                                      ..    ..    ..                                                ",
"                                                                                                    ",
"                                                                                                    ",
"                                                                                                    ",
"                                                                                                    ",
"                                                                                                    ",
"                                                                                                    ",
"                                                                                                    ",
"                                                                                                    "
};
