/* XPM */
static char *_04ceb2258ab4232b1db9ad3c7a5795aTPdwMVSo5ziP1FJp[] = {
/* columns rows colors chars-per-pixel */
"100 100 10 1 ",
"  c None",
". c black",
"X c gray20",
"o c #464646",
"O c #ED1C24",
"+ c #22B14C",
"@ c #00FF48",
"# c #FFF200",
"$ c #F6F6F6",
"% c white",
/* pixels */
"                                            ................                                        ",
"                                            ................                                        ",
"                                        ........oooooooooo....                                      ",
"                                        ........oooooooooo....                                      ",
"                                      ....oooooooooooooooooooo..                                    ",
"                                      ....oooooooooooooooooooo..                                    ",
"                                    ....oooooooooooooooooo..oo..                                    ",
"                                    ....oooooooooooooooooo..oo..                                    ",
"                                  ..oooooooooooooooooooo........                                    ",
"                                  ..oooooooooooooooooooo........                                    ",
"                                  ..oooooooooooooooooo............                                  ",
"                                  ..oooooooooooooooooo............                                  ",
"                                  ..oooooooooooooooo..........OOOO                                  ",
"                                  ..oooooooooooooooo..........OOOO                                  ",
"                                ..oooooooooooooooooo..........OOOO                                  ",
"                                ..oooooooooooooooooo..........OOOO                                  ",
"                                ..oooooooooooooooooooo............                                  ",
"                                ..oooooooooooooooooooo............                                  ",
"                                ..oooooooooooooooooooooooo........                                  ",
"                                ..oooooooooooooooooooooooo........                                  ",
"                              ....oooooooooooooooooooooooooooo....                                  ",
"                              ....oooooooooooooooooooooooooooo....                                  ",
"                              ..oooooooooooooooooooooooooooooooo..                                  ",
"                              ..oooooooooooooooooooooooooooooooo..                                  ",
"                              ..oooooooooooooooo..oooooooooooooo..                                  ",
"                              ..oooooooooooooooo..oooooooooooooo..                                  ",
"                              ..ooooooooooooooooXX..oooooooooooooo..                                ",
"                              ..ooooooooooooooooXX..oooooooooooooo..                                ",
"                              ..oooooooo....ooooooXX..oooooooooooo..                                ",
"                              ..oooooooo....ooooooXX..oooooooooooo..                                ",
"                                ..oooo....XXooooooooXX..........oo..                                ",
"                                ..oooo....XXooooooooXX..........oo..                                ",
"                                  ....  ..XXooooooooooXXXXXXXXXXoo..                                ",
"                                  ....  ..XXooooooooooXXXXXXXXXXoo..                                ",
"                                    ..  ..oooooooooooooooooooooo..                                  ",
"                                    ..  ..oooooooooooooooooooooo..                                  ",
"                                        ..oo..oooooooooooooooooo..                                  ",
"                                        ..oo..oooooooooooooooooo..                                  ",
"                                        ..ooXX..oooooooooooooooo..                                  ",
"                                        ..ooXX..oooooooooooooooo..                                  ",
"                                        ..ooooXX........oooooooo..                                  ",
"                                        ..ooooXX........oooooooo..                                  ",
"                                        ..ooooooXXXXXXXXoooooooo..                                  ",
"                                        ..ooooooXXXXXXXXoooooooo..                                  ",
"                                        ..oooooooooooooooooooooo..                                  ",
"                                        ..oooooooooooooooooooooo..                                  ",
"                                          ..oo..oooooo..oooooooo..                                  ",
"                                          ..oo..oooooo..oooooooo..                                  ",
"                                          ....XXoooooo..oooooo..                                    ",
"                                          ....XXoooooo..oooooo..                                    ",
"                                          ..XXooooooooXX..oooo..                                    ",
"                                          ..XXooooooooXX..oooo..                                    ",
"                                          ..ooooooooooXX..oooo..                                    ",
"                                          ..ooooooooooXX..oooo..                                    ",
"                                          ..oooooooo..oooooooooo..                                  ",
"                                          ..oooooooo..oooooooooo..                                  ",
"                                          ..oooooooo......oooooo..                                  ",
"                                          ..oooooooo......oooooo..                                  ",
"                                          ..oooooo....$$....oooo..                                  ",
"                                          ..oooooo....$$....oooo..                                  ",
"                                          ..ooooooXXXX$$XXXXoooo..                                  ",
"                                          ..ooooooXXXX$$XXXXoooo..                                  ",
"                                            ..ooooooXX$$oooooooooo..                                ",
"                                            ..ooooooXX$$oooooooooo..                                ",
"                                            ......ooXX$$oo..oooooo..                                ",
"                                            ......ooXX$$oo..oooooo..                                ",
"                                                ..oo..%%%%....oooo..                                ",
"                                                ..oo..%%%%....oooo..                                ",
"                                                  ..  ..%%    ..oo..                                ",
"                                                  ..  ..%%    ..oo..                                ",
"                                                      ..        ..                                  ",
"                                                      ..        ..                                  ",
"                                                  oo..oo..oo                                        ",
"                                                  oo..oo..oo                                        ",
"                                                ..++##..@@++..                                      ",
"                                                ..++##..@@++..                                      ",
"                                                ..@@##..@@++..                                      ",
"                                                ..@@##..@@++..                                      ",
"                                                ..++@@..##++..                                      ",
"                                                ..++@@..##++..                                      ",
"                                                  ..oooooo..                                        ",
"                                                  ..oooooo..                                        ",
"                                                ..@@++..##++..                                      ",
"                                                ..@@++..##++..                                      ",
"                                                ..++##..##@@..                                      ",
"                                                ..++##..##@@..                                      ",
"                                                ..++@@..++##..                                      ",
"                                                ..++@@..++##..                                      ",
"                                                  oo..oo..oo                                        ",
"                                                  oo..oo..oo                                        ",
"                                                ..    ..    ..                                      ",
"                                                ..    ..    ..                                      ",
"                                                                                                    ",
"                                                                                                    ",
"                                                                                                    ",
"                                                                                                    ",
"                                                                                                    ",
"                                                                                                    ",
"                                                                                                    ",
"                                                                                                    "
};
