/* XPM */
static char *f75a73acd63b42abb761568563af2c2e9CmFjvEY8HnoOlKD[] = {
/* columns rows colors chars-per-pixel */
"64 64 9 1 ",
"  c black",
". c #FF7E00",
"X c #22B14C",
"o c #00FF48",
"O c #FFC20E",
"+ c #2F3699",
"@ c #FFF9BD",
"# c #99D9EA",
"$ c white",
/* pixels */
"++++++++++++++++++++++++++++++++++++++++++++++++++++++++++++++++",
"++++++++++++++++++++++++++++++++++++++++++++++++++++++++++++++++",
"++++++++++++++++++++++++++++++++++++++++++++++++++++++++++++++++",
"++++++++++++++++++++++++++++++++++++++++++++++++++++++++++++++++",
"++++++++++++++++++++++++++++++++++####++++++++++++++++++++++++++",
"++++++++++++++++++++++++++++++++++####++++++++++++++++++++++++++",
"++++++++++++++++++++++++++++++++##$$++##++++++++++++++++++++++++",
"++++++++++++++++++++++++++++++++##$$++##++++++++++++++++++++++++",
"++++++++++++++++++++++++++++++++##++++##++++++++++++++++++++++++",
"++++++++++++++++++++++++++++++++##++++##++++++++++++++++++++++++",
"++++++++++++++++++++++++++++++++++####++++++++++++####++++++++++",
"++++++++++++++++++++++++++++++++++####++++++++++++####++++++++++",
"++++++++++++++++++++++++++++++++++++++++++++++++##$$++##++++++++",
"++++++++++++++++++++++++++++++++++++++++++++++++##$$++##++++++++",
"++++++++++++++++++++++++++++++++++++++++++++++++##++++##++++++++",
"++++++++++++++++++++++++++++++++++++++++++++++++##++++##++++++++",
"++++++++++++++++++++++++++++++++++++++++++++++++++####++++++++++",
"++++++++++++++++++++++++++++++++++++++++++++++++++####++++++++++",
"++++++++++++++++++++++++++++++++++++++++++++++++++++++++++++++++",
"++++++++++++++++++++++++++++++++++++++++++++++++++++++++++++++++",
"++++++++++++++++++++++++++++++          ++++++++##++++++++++++++",
"++++++++++++++++++++++++++++++          ++++++++##++++++++++++++",
"++++++++      ++      ++++++              ++++##++##++++++++++++",
"++++++++      ++      ++++++              ++++##++##++++++++++++",
"++++++++++          ++++++                  ++++##++++++++++++++",
"++++++++++          ++++++                  ++++##++++++++++++++",
"++++++++++++++    ++++++                    ++++++++++++++++++++",
"++++++++++++++    ++++++                    ++++++++++++++++++++",
"++++++++++++++                  $$    $$$$$$++++++++++++++++++++",
"++++++++++++++                  $$    $$$$$$++++++++++++++++++++",
"++++++++++++++                      $$$$$$$$++++++++++++++++++++",
"++++++++++++++                      $$$$$$$$++++++++++++++++++++",
"++++++++++++++                    $$$$$$$$++++++++++++++++++++++",
"++++++++++++++                    $$$$$$$$++++++++++++++++++++++",
"++++++++++++++++                $$$$$$$$++++++++++++++++++++++++",
"++++++++++++++++                $$$$$$$$++++++++++++++++++++++++",
"++++++++++++++++++++++$$$$    $$$$$$$$++++++++++++++++++++++++++",
"++++++++++++++++++++++$$$$    $$$$$$$$++++++++++++++++++++++++++",
"++++++++++++++++++++++++    ++++    ++++++++++++++++++++++++++++",
"++++++++++++++++++++++++    ++++    ++++++++++++++++++++++++++++",
"++++++++++++++++++++++++    ++++  ++++++++++++++++++++++++++++++",
"++++++++++++++++++++++++    ++++  ++++++++++++++++++++++++++++++",
"++++++++++++++++++++++++++++++++++++++++++++++++++++++++++++++++",
"++++++++++++++++++++++++++++++++++++++++++++++++++++++++++++++++",
"++++++++++++XX++++++++++++++++++++++++++++++++++++++++++++++++++",
"++++++++++++XX++++++++++++++++++++++++++++++++++++++++++++++++++",
"++++++++++++XX++++++++++++++++++++++++++++++++++++++++++++++++++",
"++++++++++++XX++++++++++++++++++++++++++++++++++++++++++++++++++",
"++++++++++++XX++++++++++++++++++++++++++++++++++++++++++++++++++",
"++++++++++++XX++++++++++++++++++++++++++++++++++++++++++++++++++",
"++++++++++++XXXX++++++++++++++++++++++++++++++++++++++++XX++++++",
"++++++++++++XXXX++++++++++++++++++++++++++++++++++++++++XX++++++",
"++++++++++++@@XX++++++++++++++++++++++++++++++++++++++++XX++++++",
"++++++++++++@@XX++++++++++++++++++++++++++++++++++++++++XX++++++",
"++++++++++++++XX++++++++++++++++++++++++++++++++++++++XXXX++++++",
"++++++++++++++XX++++++++++++++++++++++++++++++++++++++XXXX++++++",
"++++XXXX++++++XX++++++++++++++++++++XX++++++++++++++++XX++++++++",
"++++XXXX++++++XX++++++++++++++++++++XX++++++++++++++++XX++++++++",
"++++XX++++++++XX++++++++++++++++++XXXX++++++XX++++++++++XX++++XX",
"++++XX++++++++XX++++++++++++++++++XXXX++++++XX++++++++++XX++++XX",
"XX++XXXXXX++XXXX++++++XX@@++++XX++XXXXXX++OOXXXX++XX++..XX@@XXXX",
"XX++XXXXXX++XXXX++++++XX@@++++XX++XXXXXX++OOXXXX++XX++..XX@@XXXX",
"XXXXXXXXOO++XXXX++..XXXXXX++ooXXooooXX..XXoo++XX++XXXXXXXXXXooXX",
"XXXXXXXXOO++XXXX++..XXXXXX++ooXXooooXX..XXoo++XX++XXXXXXXXXXooXX"
};
