/* XPM */
static char *_5e674ca700142d6b068701acfde2858df2Hxzvl4kgeP1Ap[] = {
/* columns rows colors chars-per-pixel */
"100 100 4 1 ",
"  c None",
". c #464646",
"X c #9C5A3C",
"o c #A8E61D",
/* pixels */
"                                                                                                    ",
"                                                                                                    ",
"                                                                                                    ",
"                                                                                                    ",
"                                                                                                    ",
"                                              ...........                                           ",
"                                           ...ooooooooooo...                                        ",
"                                        ...ooooooooooooooooo...                                     ",
"                                      ..ooooooooooooooooooooooo..                                   ",
"                                     .ooooooooooooooooooooooooooo.                                  ",
"                                   ..ooooooooooooooooooooooooooooo..                                ",
"                                  .ooooooooooooooooooooooooooooooooo.                               ",
"                                 .ooooooooooooooooooooooooooooooooooo.                              ",
"                                .ooooooooooooooooooooooooooooooooooooo.                             ",
"                               .ooooooooooooooooooooooooooooooooooooooo.                            ",
"                              .ooooooooooooooooooooooooooooooooooooooooo.                           ",
"                             .ooooooooooooooooooooooooooooooooooooooooooo.                          ",
"                             .ooooooooooooooooooooooooooooooooooooooooooo.                          ",
"                            .ooooooooooooooooooooooooooooooooooooooooooooo.                         ",
"                           .ooooooooooooooooooooooooooooooooooooooooooooooo.                        ",
"                           .ooooooooooooooooooooooooooooooooooooooooooooooo.                        ",
"                          .ooooooooooooooooooooooooooooooooooooooooooooooooo.                       ",
"                          .ooooooooooooooooooooooooooooooooooooooooooooooooo.                       ",
"                          .ooooooooooooooooooooooooooooooooooooooooooooooooo.                       ",
"                         .ooooooooooooooooooooooooooooooooooooooooooooooooooo.                      ",
"                         .ooooooooooooooooooooooooooooooooooooooooooooooooooo.                      ",
"                         .ooooooooooooooooooooooooooooooooooooooooooooooooooo.                      ",
"                        .ooooooooooooooooooooooooooooooooooooooooooooooooooooo.                     ",
"                        .ooooooooooooooooooooooooooooooooooooooooooooooooooooo.                     ",
"                        .ooooooooooooooooooooooooooooooooooooooooooooooooooooo.                     ",
"                        .ooooooooooooooooooooooooooooooooooooooooooooooooooooo.                     ",
"                        .ooooooooooooooooooooooooooooooooooooooooooooooooooooo.                     ",
"                        .ooooooooooooooooooooooooooooooooooooooooooooooooooooo.                     ",
"                        .ooooooooooooooooooooooooooooooooooooooooooooooooooooo.                     ",
"                        .ooooooooooooooooooooooooooooooooooooooooooooooooooooo.                     ",
"                        .ooooooooooooooooooooooooooooooooooooooooooooooooooooo.                     ",
"                        .ooooooooooooooooooooooooooooooooooooooooooooooooooooo.                     ",
"                        .ooooooooooooooooooooooooooooooooooooooooooooooooooooo.                     ",
"                         .ooooooooooooooooooooooooooooooooooooooooooooooooooo.                      ",
"                         .ooooooooooooooooooooooooooooooooooooooooooooooooooo.                      ",
"                         .ooooooooooooooooooooooooooooooooooooooooooooooooooo.                      ",
"                          .ooooooooooooooooooooooooooooooooooooooooooooooooo.                       ",
"                          .ooooooooooooooooooooooooooooooooooooooooooooooooo.                       ",
"                          .ooooooooooooooooooooooooooooooooooooooooooooooooo.                       ",
"                           .ooooooooooooooooooooooooooooooooooooooooooooooo.                        ",
"                           .ooooooooooooooooooooooooooooooooooooooooooooooo.                        ",
"                            .ooooooooooooooooooooooooooooooooooooooooooooo.                         ",
"                             .ooooooooooooooooooooooooooooooooooooooooooo.                          ",
"                             .ooooooooooooooooooooooooooooooooooooooooooo.                          ",
"                              .ooooooooooooooooooooooooooooooooooooooooo.                           ",
"                               .ooooooooooooooooooooooooooooooooooooooo.                            ",
"                                .ooooooooooooooooooooooooooooooooooooo.                             ",
"                                 .ooooooooooooooooooooooooooooooooooo.                              ",
"                                 ..ooooooooooooooooooooooooooooooooo.                               ",
"                                 .X..ooooooooooooooooooooooooooooo..                                ",
"                                 .XXX.ooooooooooooooooooooooooooo.                                  ",
"                                 .XXXX..ooooooooooooooooooooooo...                                  ",
"                                 .XXXXXX...ooooooooooooooooo...XX.                                  ",
"                                 .XXXXXXXXX...ooooooooooo...XXXXX.                                  ",
"                                 .XXXXXXXXXXXX...........XXXXXXXX.                                  ",
"                                 .XXXXXXXXXXXXXXXXXXXXXXXXXXXXXXX.                                  ",
"                                 .XXXXXXXXXXXXXXXXXXXXXXXXXXXXXXX.                                  ",
"                                 .XXXXXXXXXXXXXXXXXXXXXXXXXXXXXXX.                                  ",
"                                 .XXXXXXXXXXXXXXXXXXXXXXXXXXXXXXX.                                  ",
"                                 .XXXXXXXXXXXXXXXXXXXXXXXXXXXXXXX.                                  ",
"                                 .XXXXXXXXXXXXXXXXXXXXXXXXXXXXXXX.                                  ",
"                                 .XXXXXXXXXXXXXXXXXXXXXXXXXXXXXXX.                                  ",
"                                 .XXXXXXXXXXXXXXXXXXXXXXXXXXXXXXX.                                  ",
"                                 .XXXXXXXXXXXXXXXXXXXXXXXXXXXXXXX.                                  ",
"                                 .XXXXXXXXXXXXXXXXXXXXXXXXXXXXXXX.                                  ",
"                                 .XXXXXXXXXXXXXXXXXXXXXXXXXXXXXXX.                                  ",
"                                 .XXXXXXXXXXXXXXXXXXXXXXXXXXXXXXX.                                  ",
"                                 .XXXXXXXXXXXXXXXXXXXXXXXXXXXXXXX.                                  ",
"                                 .XXXXXXXXXXXXXXXXXXXXXXXXXXXXXXX.                                  ",
"                                 .XXXXXXXXXXXXXXXXXXXXXXXXXXXXXXX.                                  ",
"                                 .XXXXXXXXXXXXXXXXXXXXXXXXXXXXXXX.                                  ",
"                                 .XXXXXXXXXXXXXXXXXXXXXXXXXXXXXXX.                                  ",
"                                 .XXXXXXXXXXXXXXXXXXXXXXXXXXXXXXX.                                  ",
"                                 .XXXXXXXXXXXXXXXXXXXXXXXXXXXXXXX.                                  ",
"                                 .XXXXXXXXXXXXXXXXXXXXXXXXXXXXXXX.                                  ",
"                                 .XXXXXXXXXXXXXXXXXXXXXXXXXXXXXXX.                                  ",
"                                 .XXXXXXXXXXXXXXXXXXXXXXXXXXXXXXX.                                  ",
"                                 .XXXXXXXXXXXXXXXXXXXXXXXXXXXXXXX.                                  ",
"                                 .XXXXXXXXXXXXXXXXXXXXXXXXXXXXXXX.                                  ",
"                                 .XXXXXXXXXXXXXXXXXXXXXXXXXXXXXXX.                                  ",
"                                 .XXXXXXXXXXXXXXXXXXXXXXXXXXXXXXX.                                  ",
"                                 .XXXXXXXXXXXXXXXXXXXXXXXXXXXXXXX.                                  ",
"                                 .XXXXXXXXXXXXXXXXXXXXXXXXXXXXXXX.                                  ",
"                                 .XXXXXXXXXXXXXXXXXXXXXXXXXXXXXXX.                                  ",
"                                 .XXXXXXXXXXXXXXXXXXXXXXXXXXXXXXX.                                  ",
"                                 .XXXXXXXXXXXXXXXXXXXXXXXXXXXXXXX.                                  ",
"....................................................................................................",
"                                                                                                    ",
"                                                                                                    ",
"                                                                                                    ",
"                                                                                                    ",
"                                                                                                    ",
"                                                                                                    ",
"                                                                                                    ",
"                                                                                                    "
};
