/* XPM */
static char *_5ea20f219b541bfd47433b56519ac5dtECy5BHYTKEqvbZY[] = {
/* columns rows colors chars-per-pixel */
"100 100 6 1 ",
"  c black",
". c #161716",
"X c #191919",
"o c #242523",
"O c #3D3E3C",
"+ c #5A5A5A",
/* pixels */
"                                                                                                    ",
"  ++++++++++++++++++++++++++++++++++++++++++++++++++++++++++++++++++++++++++++++++++++++++++++++++  ",
"  ++++++++++++++++++++++++++++++++++++++++++++++++++++++++++++++++++++++++++++++++++++++++++++++++  ",
"  ++++++++++++++++++++++++++++++++++++++++++++++++++++++++++++++++++++++++++++++++++++++++++++++++  ",
"  ++++++++++++++++++++++++++++++++++++++++++++++++++++++++++++++++++++++++++++++++++++++++++++++++  ",
"  ++++++++++++++++++++++++++++++++++++++++++++++++++++++++++++++++++++++++++++++++++++++++++++++++  ",
"  ++++++++++++++++++++++++++++++++++++++++++++++++++++++++++++++++++++++++++++++++++++++++++++++++  ",
"  ++++++++++++++++++++++++++++++++++++++++++++++++++++++++++++++++++++++++++++++++++++++++++++++++  ",
"  ++++++++++++++++++++++++++++++++++++++++++++++++++++++++++++++++++++++++++++++++++++++++++++++++  ",
"  ++++++++++++++++++++++++++++++++++++++++++++++++++++++++++++++++++++++++++++++++++++++++++++++++  ",
"  ++++++++++++++++++++++++++++++++++++++++++++++++++++++++++++++++++++++++++++++++++++++++++++++++  ",
"  ++++++++++++++++++++++++++++++++++++++++++++++++++++++++++++++++++++++++++++++++++++++++++++++++  ",
"  ++++++++++++++++++++++++++++++++++++++++++++++++++++++++++++++++++++++++++++++++++++++++++++++++  ",
"  ++++++++++++++++++++++++++++++++++++++++++++++++++++++++++++++++++++++++++++++++++++++++++++++++  ",
"  ++++++++++++++++++++++++++++++++++++++++++++++++++++++++++++++++++++++++++++++++++++++++++++++++  ",
"  ++++++++++++++++++++++++++++++++++++++++++++++++++++++++++++++++++++++++++++++++++++++++++++++++  ",
"  ++++++++++++++++++++++++++++++++++++++++++++++++++++++++++++++++++++++++++++++++++++++++++++++++  ",
"  O++++++++++++++++++++++++++++++++++++++++++++++++++++++++++++++++++++++++++++++++++++++++++++++O  ",
"  OOOOOOOOOOOOOOOOOOOOOOOOOOOOOOOOOOOOOOOOOOOOOOOOOOOOOOOOOOOOOOOOOOOOOOOOOOOOOOOOOOOOOOOOOOOOOOOO  ",
"  OOOOOOOOOOOOOOOOOOOOOOOOOOOOOOOOOOOOOOOOOOOOOOOOOOOOOOOOOOOOOOOOOOOOOOOOOOOOOOOOOOOOOOOOOOOOOOOO  ",
"  OOOOOOOOOOOOOOOOOOOOOOOOOOOOOOOOOOOOOOOOOOOOOOOOOOOOOOOOOOOOOOOOOOOOOOOOOOOOOOOOOOOOOOOOOOOOOOOO  ",
"  OOOOOOOOOOOOOOOOOOOOOOOOOOOOOOOOOOOOOOOOOOOOOOOOOOOOOOOOOOOOOOOOOOOOOOOOOOOOOOOOOOOOOOOOOOOOOOOO  ",
"  .OOOOOOOOOOOOOOOOOOOOOOOOOOOOOOOOOOOOOOOOOOOOOOOOOOOOOOOOOOOOOOOOOOOOOOOOOOOOOOOOOOOOOOOOOOOOOO.  ",
"  ................................................................................................  ",
"  ................................................................................................  ",
"                                                                                                    ",
"                                                                                                    ",
"X..................................................................................................X",
"XXXXXXXXXXXXXXXXXXXXXXXXXXXXXXXXXXXXXXXXXXXXXXXXXXXXXXXXXXXXXXXXXXXXXXXXXXXXXXXXXXXXXXXXXXXXXXXXXXXX",
"ooooooooo oooooooooooo  oooooooooo ooooooooo oooooooooo ooooooooo oooooooooo  oooooooooooo ooooooooo",
"oOOOOOOOo oOOOOOOOOOOoo ooOOOOOOoo  ooOOOOoo oOOOOOOOOo ooOOOOoo  ooOOOOOOoo ooOOOOOOOOOOo oOOOOOOOo",
"oOOOOOOoo oOOOOOOOOOOoo ooOOOOOOOoo oOOOOOoo oOOOOOOOOo ooOOOOOo ooOOOOOOOoo ooOOOOOOOOOOo ooOOOOOOo",
"oOOOOOOo  ooOOOOOOOOoo  oOOOOOOOooo oOOOOOOo oOOOOOOOOo oOOOOOOo oooOOOOOOOo  ooOOOOOOOOoo  oOOOOOOo",
"oOOOOOoo   oOOOOOOOoo  oooOOOOOOooo oOOOOOOo oOOOOOOOOo oOOOOOOo oooOOOOOOooo  ooOOOOOOOo   ooOOOOOo",
"oOOoooo  X ooOOOOOoo   ooooooooooo  ooOOOOoo oooOOOOooo ooOOOOoo  ooooooooooo   ooOOOOOoo X  ooooOOo",
"oooo    .. oooooooo  .               oooooo    oooooo    oooooo               .  oooooooo ..    oooo",
"     X.....         ....XXXXXXXX ...        ..  oooo  ..        ....XXXXXXXX....         .....X     ",
"o  o............................ ..............      ........ ....o.........ooooo. ........oo....  o",
"oo  ......oooooooo.......oooooo.X ........................... .oooOoooooooooooooo.. ..ooooooooo.  oo",
"ooo  ....Oooooooooooo..oooooooo.. .....ooooooooooooooooooooo. oooooOOOOOOOOOOOOOOo.  .ooooOOOOO  ooO",
"oooX ...ooOOOOOOOOooooooOOOOOOooo  oooooooooooooooooooooooo.. ooOOOOOOOOOOOOOOOOOoo. .ooooooOOO XoOO",
"oooX ..ooOOOOOOOOOOOOOOOOOOOOOooo. .oooooOOOOOOOOOOOOOooooo.. ooOOOOOOOOOOOOOOOOOOoo ..oooooOOO XoOO",
"OooX .OOOOOOOOOOOOOOOOOOOOOOOOOOo. ..oooOOOOOOOOOOOOOOOOooo.  oOOOOOOOOOOOOOOOOOOOoo  .oooooooo XooO",
"OoX  oOOOOOOOOOOOOOOOOOOOOOOOOOOo.  .ooOOOOOOOOOOOOOOOOOOoo. ooOOOOOOOOOOOOOOOOOOOoo. .oooooooo  Xoo",
"    .ooOOOOOOOOOOOOOOOOOOOOOOOOOO.. .ooOOOOOOOOOOOOOOOOOOoo .oOOOOOOOOOOOOOOOOOOOOoo. .oo.......    ",
"OoX ..ooOOOOOOOOOOOOOOOOOOOOOOOOOo. .ooOOOOOOOOOOOOOOOOOOoo .OOOOOOOOOOOOOOOOOOOOOo.. .......... Xoo",
"Ooo ..ooooOOOOOOOOOOOOOOOOOOOOOOOoo. .oOOOOOOOOOOOOOOOOOOoo .oooooOOOOOOOOOOOOOOOOO.. ..         ooO",
"Ooo X.ooooOOOOOOOOOOOOOOOOOOOOOOOoo. .oOOOOOOOOOOOOOOOOOoo. ........oOOOOOOOOOOOOO...   .......X ooO",
"Ooo X.ooooooooooooooOOOOOOOOOOOOOoo. .oOOOOOOOOOOOOOOooooo.      .....ooOOOOOOOOO....  ...ooo..X ooO",
"Ooo ..oooooooooooooooOOOOOOOOOOOOooo .oOOOOOooooooooooo.... .....   .....oooOOOO.... ..ooooOOOO. ooO",
"OOo ............oooooooOOOOOOOOOOooo .ooOOOooooooo......... ..ooo...  ....ooOOOO...  ..ooOOOOOO. oOO",
"Oo ..................oooOOOOOOOOOoo. .ooOoooo........       ..ooooo...  ...ooOO...  ..ooOOOOOOOo. oO",
"Oo ....          ....oooOOOOOOOOOo.. .ooooo....       ..... ..ooooooo...   ..OO... ...oOOOOOOOo.. oo",
"   .... .........   ..oooOOOOOOOOo.. .oooo...  .......oooo. ..ooooooooo....  ....  ..ooOOOOOOOo..   ",
"Oo  .....oo.o......  ..oooOOOOOOOo.. .ooo..  .oo...ooooooo.. .oooooOOOoo.... .... ..oooOOOOOOOo.  oo",
"Ooo .....ooooooooo..  .oooooOOOOOo.. ooo..  ..ooooooooOOooo. .ooooOOOOOoooo.. ... .oooOOOOOOOOo. ooO",
"OOo ...oooooooooooo..  ..oooOOOooo.  ooo.  ..ooooooOOOOOooo. .oooOOOOOOOooo.. ..  ..OOOOOOOOOOo. oOO",
"OOo ..oooooOOOOOooooo. ..oooOOOooo. .oo.. ...ooooOOOOOOOoo.. .oooOOOOOOOOoo.. .. .....oOOOOOOOo. oOO",
"OOo ..oooOOOOOOOOoooo   ...oooo.... ..... .ooooOOOOOOOOOoo.. .ooOOOOOOOOOoo..       ....ooOOOO.. oOO",
"Ooo ..ooOOOOOOOOOOOoo.   ..ooo.... .....  ooooOOOOOOOOOOoo.. .ooOOOOOOOOOoo... ....  ....ooOOO.. ooO",
"Ooo ..ooOOOOOOOOOOOoo. .    .....  ....  .oooOOOOOOOOOOOoo.  .oOOOOOOOOOOooo.. .ooo.  ....oOOO.. ooO",
"OoX ..ooOOOOOOOOOOOo.. ....              ..oOOOOOOOOOOOOoo. ..oOOOOOOOOOOOoo.. oOOOOo  ....OOO.. Xoo",
"    .oooOOOOOOOOOOOo.. ooo..............  .oOOOOOOOOOOOOoo. .ooOOOOOOOOOOOoo.  OOOOOO.  ........    ",
"Ooo .oooOOOOOOOOOOOoo. oooooooo..oooooo.. .oOOOOOOOOOOOOOo. .ooOOOOOOOOOOOOo. .OOOOOOO.   ...... ooo",
"OOo .oooOOOOOOOOooooo  oooOOOoooooOOOOoo. .oOOOOOOOOOOOOOo. .oOOOOOOOOOOOOoo. .OOOOOOO...    .   oOO",
"OOo .oooOOOOOOOoooo.. .oooOOOOOOOOOOOOOo. .ooOOOOOOOOOOOOo. .oOOOOOOOOOOOOo.  oOOOOOOO....    .. oOO",
"Ooo .oooOOOOOOoooo..  ...oOOOOOOOOOOOOoo.  .oOOOOOOOOOOOOo. .oOOOOOOOOOOOOo. .oOOOOOOOO..  ....o ooO",
"Ooo .oooOOOOooooo..     ..ooOOOOOOOooooo.. .oOOOOOOOOOOoo.. ooOOOOOOOOOOOo.. .OOOOOOOOO.. ...ooo ooO",
"Oo  .oooOOOOooo...  ooo   .ooOOOOOOo......  .ooooooooo.... .ooOOOOOOOOOOOo.  .OOOOOOOOO.  ..oOoo  oO",
"Oo ..oooOOOOooo..  ooooo. .ooOOOOOOo....... ..oo......    ..ooOOOOOOOOOOOo. .oOOOOOOOO.. ..oOOooo oo",
"  o...ooOOOooo..  ooooooo. .ooOOOOOo..o   o .........     ..ooOOOOOOOOOOo.. oOOOOOOOOO.. ..oOOOooo  ",
"O  ...oooOOooo.  ooOOOOOo.  .oOOOOOo.   ..           ....  .ooooooOOOooo... oOOOOOOOOO.. ..oOOOoo  o",
"Oo ...ooooooo.. ooOOOOOOOo.  oOOOOoo. ....................  ...oooooooo..   oOOOOOOOOOO. ..oOOOoo oo",
"Oo  ..ooooooo. .ooOOOOOOOoo. .oOOOo.. .oooooooooooooooo....  ..ooooo....  .ooOOOOOOOOO.. ..oOOOo  oO",
"Ooo ..oooooo.. oooOOOOOOOOoo .oOOoo. ..ooooooooOOOOOOooo.... ..........  ..oooOOOOOOOO.. ..oOOOo ooO",
"OOo ...oooo... oooOOOOOOOOoo .ooOoo. .ooOOOOOOOOOOOOOOOoo.... ....        ..ooOOOOOOOO.. ..oOOOo oOO",
"Ooo ...ooo...  oooOOOOOOOOOo  ooooo. .ooOOOOOOOOOOOOOOOooo...     .......  ..ooOOOOOOO.. ..oOOOo ooO",
"Oo  ...o....  ..ooOOOOOOOOOo. ooooo. .ooOOOOOOOOOOOOOOOOooo... ............ ..oOOOOOOO.. ..oOOOo  oO",
"Oo .......     ..oOOOOOOOO... ..oo.. .oooOOOOOOOOOOOOOOOoooo.. ..oooooo..... .....OOO... ..oOOOoo oo",
"   ....     ...  .oOOOOOO....  ..... ..ooooOOOOOOOOOOOOOOooo.. .ooOooooooo... ........... ..oOOoo   ",
"O   ..  .....o...  .oooOo             ..ooooOOOOOOOOOOOOOOoo.. ooOOOOOOOOo..o o         .  ....o   o",
"Ooo .......oooo...  .oo.  ........... ...ooooOOOOOOOOOOOOOoo.. ooOOOOOOOOo...   ........      .. ooO",
"OOo ...ooooooooooo..  o  ..ooo.......   ....oooOOOOOOOOOOOoo.. ooOOOOOOOOoo.. ...............o   oOO",
"Oo  ..oooooooOOOooo..   ..ooooooooooo..   ...ooOOOOOOOOOOoooo. .oOOOOOOOOoo.. ....oooooooooooooo  oO",
"Oo ..ooOOOOOOOOOOOOO..  .oooOOOOOOOOOoo..   .oooOOOOOOOOOoooo. .oOOOOOOOOOo.. ..oooOOOOOOOOOooooo oO",
"O ..ooOOOOOOOOOOOOOO... oooOOOOOOOOOOOooo..  .ooOOOOOOOOooooo ..ooOOOOOOOOoo. ..ooOOOOOOOOOOOOoooo o",
"  .ooOOOOOOOOOOOOOOOo.. ooOOOOOOOOOOOOOOOo.. .oooOOOOOOOooooo ..oooOOOOOOOoo. .oooOOOOOOOOOOOOOooo  ",
"o ..ooOOOOOOOOOOOOOoo... ooOOOOOOOOOOOOOOoo.. ooooOOOOOOooooo ..oooOOOOOOOo.. .ooooOOOOOOOOOOOOooo  ",
"o   .ooOOOOOOOOOOOoooo.. oooOOOOOOOOOOOOooo..  oooooooOOoooo. ..ooooOOOOOoo.. ..oooooOOOOOOOOOoo   o",
"Ooo ..oooOOOOOOOOooooo.. .oooooooOOOOOooooo..  ooooooooooooo. .ooooooooOooo.. ..oooooooooooooooo ooO",
"OOo  oooooooooooooo..... .ooooooooooooooooo.. .ooooooooooo... .oooooooooooo.. .ooooooo.......oo  oOO",
"OOo ...................  .................... .............. ...oooooooooooo ................... ooO",
"                                                                                                    ",
" ++++++++++++++++++++++++++++++++++++++++++++++++++++++++++++++++++++++++++++++++++++++++++++++++++ ",
" OOOOOOOOOOOOOOOOOOOOOOOOOOOOOOOOOOOOOOOOOOOOOOOOOOOOOOOOOOOOOOOOOOOOOOOOOOOOOOOOOOOOOOOOOOOOOOOOOO ",
" .................................................................................................. ",
" .................................................................................................. ",
" .................................................................................................. ",
" .................................................................................................. ",
"                                                                                                    "
};
