/* XPM */
static char *cc7422af3a4342a7eedff990548d2f70B5mpX6ioh0QMYxGT[] = {
/* columns rows colors chars-per-pixel */
"100 100 5 1 ",
"  c None",
". c black",
"X c #177B35",
"o c #00B232",
"O c #B2A900",
/* pixels */
"                                                                                                    ",
"                                                                                                    ",
"                                                                                                    ",
"                                                                                                    ",
"                                                                                                    ",
"                                                                                                    ",
"                                                                                                    ",
"                                                                                                    ",
"                                                                                                    ",
"                                                                                                    ",
"                                                                                                    ",
"                                                                                                    ",
"                                                                                                    ",
"                                                                                                    ",
"                                                                                                    ",
"                                                                                                    ",
"                                                                                                    ",
"                                                                                                    ",
"                                                                                                    ",
"                                                                                                    ",
"                                                                                                    ",
"                                                                                                    ",
"                                                                                                    ",
"                                                                                                    ",
"                                                                                                    ",
"                                                                                                    ",
"                                                 ......                                             ",
"                                               ...oo.....                                           ",
"                                             ..oooo..OO....                                         ",
"                                           ..oooooo.OOOOO...                                        ",
"                                          ..ooooooo...OO..o..                                       ",
"                                         ..ooo..ooooo....ooo..                                      ",
"                                         .ooo....oooooooooooo..                                     ",
"                                        .oo...OO.oooooooooo....                                     ",
"                                       ..oo.OOOO.oooooooooo.O..                                     ",
"                                       .ooo.OOO..ooooo....o.O.o.                                    ",
"                                       .ooo.OO..o...oo.OO.....o.                                    ",
"                                       .ooo....oo.O..o..OO.o..oo.                                   ",
"                                       .ooooooooo..O..o.OO.o..oo.                                   ",
"                                       ..oooo...oo.OO.o..O.oooooo.                                  ",
"                                        .oooo.O..o.OO.oo...oooooo.                                  ",
"                                        ..ooo.OO.o.OO.ooo..oooooo.                                  ",
"                                         .oooo.O.o..O.ooooooooooX.                                  ",
"                                         ...oo.O.oo...ooooooooooX......                             ",
"                                           ..o.O.oooooooooooooooX.oooo..                            ",
"                                            .oo..ooo......ooooooX.ooXXX.                            ",
"                                             .oooooooooooo.oooooX..XXXX..                           ",
"                                             ..oooooooooooo.oooXXX.XXXXX.                           ",
"                                              .oooooooooooo.oooXXX.XXXXX.                           ",
"                                               .ooooooooooo..ooXXX...XXX.                           ",
"                                               .ooo.....oooo.ooXXX. ..X.                            ",
"                                               .oooXXXX..ooo.oXXXX.  .X.                            ",
"                                               .oooooooX.oo..oXXXX.  ...                            ",
"                                               .oooooooX..o.XoXXXX.   ..                            ",
"                                               .ooooooooX...XoXXXX.                                 ",
"                            ......             .oooooooooXXXoXXXXX.                                 ",
"                           .ooooo..            .oooooooooooooXXXX..                                 ",
"                          ....oooo.           .oooooooooooooXXXXX.                                  ",
"                             ..ooo.           .oooooooooooooXXXXX.                                  ",
"                              .ooo..         .oooooooooooooXXXXX.                                   ",
"                              .oooo.         .ooooooooooooXXXXX.                                    ",
"                              .oooo..       .ooooooooooooXXXXXX.                                    ",
"                              .ooooo..    ..ooooooooooooXXXXXX.                                     ",
"                               .oooooo.....ooooooooooooXXXXXX.                                      ",
"                               .XooooooooooooooooooooXXXXXXX.                                       ",
"                               .XXoooooooooooooooooXXXXXXXX.                                        ",
"                                .XXoooooooooooooXXXXXXXXXX.                                         ",
"                                .XXXXooooooooXXXXXXXXXXX..                                          ",
"                                ..XXXXXXXXXXXXXXXXXXXXX..                                           ",
"                                  ...XXXXXXXXXXXXXXX....                                            ",
"                                     .....XXXXX.....                                                ",
"                                         .......                                                    ",
"                                                                                                    ",
"                                                                                                    ",
"                                                                                                    ",
"                                                                                                    ",
"                                                                                                    ",
"                                                                                                    ",
"                                                                                                    ",
"                                                                                                    ",
"                                                                                                    ",
"                                                                                                    ",
"                                                                                                    ",
"                                                                                                    ",
"                                                                                                    ",
"                                                                                                    ",
"                                                                                                    ",
"                                                                                                    ",
"                                                                                                    ",
"                                                                                                    ",
"                                                                                                    ",
"                                                                                                    ",
"                                                                                                    ",
"                                                                                                    ",
"                                                                                                    ",
"                                                                                                    ",
"                                                                                                    ",
"                                                                                                    ",
"                                                                                                    ",
"                                                                                                    "
};
