/* XPM */
static char *result[] = {
/* columns rows colors chars-per-pixel */
"100 100 11 1 ",
"  c black",
". c gray20",
"X c #700426",
"o c #2C0647",
"O c #3F165C",
"+ c #464646",
"@ c #990030",
"# c #9C5A3C",
"$ c #8A8103",
"% c #FFF200",
"& c None",
/* pixels */
"&&&&&&&&&&&&&&&&&&&&&&&&&&&&&&&&&&&&&&&&&&&&&&&&&&&&&&&&&&&&&&&&&&&&&&&&&&&&&&&&&&&&&&&&&&&&&&&&&&&&",
"&&&&&&&&&&&&&&&&&&&&&&&&&&&&&&&&&&&&&&&&&&&&&&&&&&&&&&&&&&&&&&&&&&&&&&&&&&&&&&&&&&&&&&&&&&&&&&&&&&&&",
"&&&&&&&&&&&&&&&&&&&&&&&&&&&&&&&&&&&&&&&&&&&&&&&&&&&&&&&&&&&&&&&&&&&&&&&&&&&&&&&&&&&&&&&&&&&&&&&&&&&&",
"&&&&&&&&&&&&&&&&&&&&&&&&&&&&&&&&&&&&&&&&&&&&&&&&&&&&&&&&&&&&&&&&&&&&&&&&&&&&&&&&&&&&&&&&&&&&&&&&&&&&",
"&&&&&&&&&&&&&&&&&&&&&&&&&&&&&&&&&&&&&&&&&&&&&&&&&&&&&&&&&&&&&&&&&&&&&&&&&&&&&&&&&&&&&&&&&&&&&&&&&&&&",
"&&&&&&&&&&&&&&&&&&&&&&&&&&&&&&&&&&&&&&&&&&&&&&&       &&&&&&&&&&&&&&&&&&&&&&&&&&&&&&&&&&&&&&&&&&&&&&",
"&&&&&&&&&&&&&&&&&&&&&&&&&&&&&&&&&&&&&&&&&&&&&  @@@  &&&&&&&&&&&&&&&&&&&&&&&&&&&&&&&&&&&&&&&&&&&&&&&&",
"&&&&&&&&&&&&&&&&&&&&&&&&&&&&&&&&&&&&&&&&&&&  @@@  &&&&&&&&&&&&&&&&&&&&&&&&&&&&&&&&&&&&&&&&&&&&&&&&&&",
"&&&&&&&&&&&&&&&&&&&&&&&&&&&&&&&&&&&&&&&&&& @@@@ &&&&&&&&&&&&            &&&&&&&&&&&&&&&&&&&&&&&&&&&&",
"&&&&&&&&&&&&&&&&&&&&&&&&&&&&&&&&&&&&&&&&& @@@@ &&&&&&&&&&&  @@@@     &&&&&&&&&&&&&&&&&&&&&&&&&&&&&&&",
"&&&&&&&&&&&&&&&&&&&&&&&&&&&&&&&&&&&&&&&& @@@  &&&&&&&&&&& @@@@  &&&&&&&&&&&&&&&&&&&&&&&&&&&&&&&&&&&&",
"&&&&&&&&&&&&&&&&&&&&&&&&&&&&&&&&&&&&&&& @@@ &&&&&&&&&&&& @@@  &&&&&&&&&&&&&&&&&&&&&&&&&&&&&&&&&&&&&&",
"&&&&&&&&&&&&&&&&&&&&&&&&            && @@@ &&&&&&&&&&&& @@@ &&&&&&&&&&&&&&&&&&&&&&&&&&&&&&&&&&&&&&&&",
"&&&&&&&&&&&&&&&&&&&     OOOOOOOOOOO   @@@@          &  @@@ &&&&&&&&&&&&&&&&&&&&&&&&&&&&&&&&&&&&&&&&&",
"&&&&&&&&&&&&&&&    OOOOOOOOOOOOOOOO @@@@@@@  OOOO    @@@@ &&&&&&&&&&&&&&&&&&&&&&&&&&&&&&&&&&&&&&&&&&",
"&&&&&&&&&&&&&  OOOOOOOOOOOOOOOOOOOOO  @@@@@@ OOOOO  @@@@ &&&&&&&&&&&&&&&&&&&&&&&&&&&&&&&&&&&&&&&&&&&",
"&&&&&&&&&&&  OOOOOOOOOOOOOOOOOOOOOOOOO      OOOOOOO   @@      &&&&&&&        &&&&&&&&&&&&&&&&&&&&&&&",
"&&&&&&&&&  OOOOOOOOOOOOOOOOOOOOOOOOOOOOOOOOOOOOOOOOOO     OOOO  &&&  @@@@@@@@   &&&&&&&&&&&&&&&&&&&&",
"&&&&&&&& OOOOOOOOOOOOOOOOOOOOOOOOOOOOOOOOOOOOOOOOOOOOOOOOOOOOOO    @@@@@@@@@@@@@ &&&&&&&&&&&&&&&&&&&",
"&&&&&&&& OOOOOOOOOOOOOOOOOOOOOOOOOOOOOOOOOOOOOOOOOOOOOOOOOOOOOO @@@@@@@@@@@@@@@@@  &&&&&&&&&&&&&&&&&",
"&&&&&&  OOOOOOOOOOOOOOOOOOOOOOOOOOOOOOOOOOOOOOOOOOOOOOOOOOOOOOO  @@@@@@@@@@   @@@@@ &&&&&&&&&&&&&&&&",
"&&&&& OOOOOOOOOOOOOOOOOOOOOOOOOOOOOOOOOOOOOOOOOOOOOOOOOOOOOOOOOO @@@@@@    &&&       &&&&&&&&&&&&&&&",
"&&&& OOOOOOOOOOOOOOOOOOOOOOOOOOOOOOOOOOOOOOOOOOOOOOOOOOOOOOOOOOO @@@@@ &&&&&&&&&&&&&  &&&&&&&&&&&&&&",
"&&& OOOOOOOOOOOOOOOOOOOOOOOOOOOOOOOOOOOOOOOOOOOOOOOOOOOOOOOOOOOO  @@@ &&&&&&&&&&&&&&&  &&&&&&&&&&&&&",
"&& OOOOOOOOOOO   OOOOOOOOOOOOOOOOOOOOOOOOOOOOOOOOOOOOOOOOOOOOOOOO  @  &&&&&&&&&&&&&&&& &&&&&&&&&&&&&",
"& OOOOOOOOOOO XXX  OOOOOOOOOOOOOOOOOOOOOOOOOOOOOOOOOOOOOOOOOOOOOOO     &&&&&&&&&&&&&&&& &&&&&&&&&&&&",
"& OOOOOOOOOO XXXXX  OOOOOOOOOOOOOOOOOOOOOOOO OOOOOOOOOOOOOOOOOOOOOOOOO  &&&&&&&&&&&&&&&&&&&&&&&&&&&&",
"& OOOOOOOOO XXXX   X  OOOOOOOOOOOOOOOOOOOOOO OOOOOOOOOOOOOOOOOOOOOOOOOO &&&&&&&&&&&&&&&&&&&&&&&&&&&&",
"&  OOOOOOOO XXX $$$ XX OOOOOOOOOOOOOOOOOOOOO OOOOOOOOOOOOOOOOOOOOOOOOOOO &&&&&&&&&&&&&&&&&&&&&&&&&&&",
"&  OOOOOOOO XX $$$$$ XX OOOOOOOOOOOOOOOOOOOO OOOOOOOOOOOOOOOOOOOOOOOOOOO &&&&&&&&&&&&&&&&&&&&&&&&&&&",
"& X OOOOOOO XX $  $$ XX OOOOOOOOOOOOOOOOOOOOO OOOOOOOOOOOOOOOOOOOOOOOOOOO &&&&&&&&&&&&&&&&&&&&&&&&&&",
" @XX OOOOOO X@ %  %% @XX OOOOOOOOOOOOOOOOOOOOO OOOOOOOOOOOO OOOOOOOOOOOO &&&&&&&&&&&&&&&&&&&&&&&&&&&",
" @@X OOOOOO @@@ %%% @@@ OOOOOOOOOOOOOOOOOOOOOO OOOOOOOOOOOO OOOOOOOOOOO  &&&&&&&&&&&&&&&&&&&&&&&&&&&",
" @@XX OOOOOO @@@   @@  OOOOOOOOOOOOOOOOOOOOOOO OOOOOOOOOOOO OOOOOOOOOOO      &&&&&&&&&&&&&&&&&&&&&&&",
" @@@XX OOOOOO  @@@@@ OOOOOOOOOOOOOOOOOOOOOOOOO OOOOOOOOOOOO OOOOOOOOOOO @@@@@  &&&&&&&&&&&&&&&&&&&&&",
" @@@@XX OOOOOOO     OOOOOOOOOOOOOOOOOOOOOOOOOOO OOOOOOOOOOO OOOOOOOOOOO @@@@@@@   &&&&&&&&&&&&&&&&&&",
" @@@@@XX  OOOOOOOOOOOOOOOOOOOOOOOOOOOOOOOOOOOOO OOOOOOOOOOO OOOOOOOOOOO  @@@@@@@@@ &&&&&&&&&&&&&&&&&",
" @@@@@@XXX OOOOOOOOOOOOOOOOOOOOOOOOOOOOOOOOOOOO OOOOOOOOOO oOOOOOOOOOOOO @@@@@@@@@@ &&&&&&&&&&&&&&&&",
"& @@@@@@@XX  OOOOOOOOOOOOOOOOOOOOOOOOOOOOOOOOO oOOOOOOOOOO oOOOOOOOOOOOO  @@   @@@@@ &&&&&&&&&&&&&&&",
"& @@@@@@@@XXX OOOOOOOOOOOOOOOOOOOOOOOOOOOOOOOO oOOOOOOOOO ooOOOOOOOO OOOO   &&&   @@@ &&&&&&&&&&&&&&",
"&& @@@@@@@@@XX OOOOOOOOOOOOOOOOOOOOOOOOOOOOOOO oOOOOOOOO ooOOOOOOOO oOOOO   &&&&&& @@@ &&&&&&&&&&&&&",
"&&& @@@@@@@@@XX OOOOOOOOOOOOOOOOOOOOOOOOOOOOO ooOOOOOOO ooOOOOOOOO ooOOOOOO &&&&&&& @@@ &&&&&&&&&&&&",
"&&& @@@@@@@@@@XX OOOOOOOOOOOOOOOOOOOOOOOOOOO ooOOOOOOO ooOOOOOOOO ooOOOOOOO &&&&&&&& @@ &&&&&&&&&&&&",
"&&&& @@@@@@@@@@XX OOOOOOOOOOOOOOOOOOOOOOOOO ooOOOOOOO ooOOOOOOOO ooOOOOOOOO &&&&&&&&& @ &&&&&&&&&&&&",
"&&&&&  @@@@@@@@@X OOOOOOOOOOOOOOOOOOOOOOOO ooOOOOO   ooOOOOOOOO ooOOOOOOOOO &&&&&&&&&& @ &&&&&&&&&&&",
"&&&&&&& @@@@@@@    OOOOOOOOOOOOOOOOOOOOOO ooOOOOOOooooOOOOOOO  ooOOOOOOOOOO &&&&&&&&&& @ &&&&&&&&&&&",
"&&&&&&&& @@@@  ooo OOOOOOOOOOOOOOOOOOOOO ooOOOO OOOOOOOOOOOOOoooOOOOOOOOOOO &&&&&&&&&&&  &&&&&&&&&&&",
"&&&&&&&&& @@ oooooo OOOOOOOOOOOOOOOOOOOOOOOOOOOO OOOOOOOOOOOOOOOOOOOOOOOOOO &&&&&&&&&&& &&&&&&&&&&&&",
"&&&&&&&&&&  & oooooo OOOOOOOOOOOOOOOOOOOOOOOOOOOO OOOOOOOOOOOOOOO OOOOOOOOO &&&&&&&&&&&&&&&&&&&&&&&&",
"&&&&&&&&&&&&&& ooooo OOOOOOOOOOOOOOOOO  OOOOOOOOO OOOOOOOOOOOOOOO OOOOOOOOO &&&&&&&&&&&&&&&&&&&&&&&&",
"&&&&&&&&&&&&&&& ooooo OOOOOOOOOOOOOOO && OOOOOOOO OOOOOOOOOOOOOOO OOOOOOOOO &&&&&&&&&&&&&&&&&&&&&&&&",
"&&&&&&&&&&&&&&&& ooooo OOOOOOOOOOOOO  && OOOOOOOOO OOOOOOOOOOOOOO OOOOOOOOO &&&&&&&&&&&&&&&&&&&&&&&&",
"&&&&&&&&&&&&&&&&& ooooo OOOOOOOOOOOO &&&& OOOOOOOO OOOOOOOOOOOOOO OOOOOOOOO &&&&&&&&&&&&&&&&&&&&&&&&",
"&&&&&&&&&&&&&&&&&& ooooo OOOOOOOOOO &&&&& OOOOOOOO OOOOOOOOOOOOOO OOOOOOOOO &&&&&&&&&&&&&&&&&&&&&&&&",
"&&&&&&&&&&&&&&&&&&& ooo  OOOOOOOOO &&&&&& OOOOOOOO OOOOOOOOOOOOOO OOOOOOOOO &&&&&&&&&&&&&&&&&&&&&&&&",
"&&&&&&&&&&&&&&&&&&&& oo   OOOOOOOO &&&&&& OOOOOOOO OOOOOOOOOOOOOO OOOOOOOOO &&&&&&&&&&&&&&&&&&&&&&&&",
"&&&&&&&&&&&&&&&&&&&&&   X OOOOO O &&&&&&& OOOOOOOO OOOOOOOOOOOOOOO OOOOOOOOO &&&&&&&&&&&&&&&&&&&&&&&",
"&&&&&&&&&&&&&&&&&&     XXX OOO & &&&&&&&& OOOOOOOO OOOOOOOOOOOOOOO OOOOOOOOO &&&&&&&&&&&&&&&&&&&&&&&",
"&&&&&&&&&&&&&&&&&&& @@@@@X OOO &&&&&&&&& OOOOOOOOO OOOOOOOOOOOOOOO OOOOOOOOO &&&&&&&&&&&&&&&&&&&&&&&",
"&&&&&&&&&&&&&&&&&&&  @@@@@ OOO &&&&&&&&& OOOOOOOOO OOOOOOOOOOOOOOOO OOOOOOOOO &&&&&&&&&&&&&&&&&&&&&&",
"&&&&&&&&&&&&&&&&&&&&  @@@   O &&&&&&&&&& OOOOOOOOO OOOOOOOOOOOOOOOO OOOOOOOOO &&&&&&&&&&&&&&&&&&&&&&",
"&&&&&&&&&&&&&&&&&&&&&     && &&&&&&&&&&& OOOOOOOOO OOOOOOOOOOOOOOOO OOOOOOOOO &&&&&&&&&&&&&&&&&&&&&&",
"&&&&&&&&&&&&&&&&&&&&&&&&&&&&&&&&&&&&&&&& OOOOOOOOO OOOOOOOOOOOOOOOOO OOOOOOOO &&&&&&&&&&&&&&&&&&&&&&",
"&&&&&&&&&&&&&&&&&&&&&&&&&&&&&&&&&&&&&&& OOOOOOOOO OOOOOOOOOOOOOOOOOO OOOOOOOO &&&&&&&&&&&&&&&&&&&&&&",
"&&&&&&&&&&&&&&&&&&&&&&&&&&&&&&&&&&&&&&& OOOOOOOOO OOOOOOOOOOOOOOOOOO OOOOOOOOO &&&&&&&&&&&&&&&&&&&&&",
"&&&&&&&&&&&&&&&&&&&&&&&&&&&&&&&&&&&&&& OOOOOOOOOO OOOOOOOOOOOOOOOOOOO OOOOOOOO &&&&&&&&&&&&&&&&&&&&&",
"&&&&&&&&&&&&&&&&&&&&&&&&&&&&&&&&&&&&&& OOOOOOOOOO OOOOOOOOOOOOOOOOOOO OOOOOOOO &&&&&&&&&&&&&&&&&&&&&",
"&&&&&&&&&&&&&&&&&&&&&&&&&&&&&&&&&&&&& OOOOOOOOOOO OOOOOOOOOOOOOOOOOOOO OOOOOOOO &&&&&&&&&&&&&&&&&&&&",
"&&&&&&&&&&&&&&&&&&&&&&&&&&&&&&&&&&&& OOOOOOOOOOOO OOOOOOOOOOOOOOOOOOOO OOOOOOOO &&&&&&&&&&&&&&&&&&&&",
"&&&&&&&&&&&&&&&&&&&&&&&&&&&&&&&&&&& OOOOOOOOOOOO OOOOOOOOOOOOOOOOOOOOOO OOOOOOO &&&&&&&&&&&&&&&&&&&&",
"&&&&&&&&&&&&&&&&&&&&&&&&&&&&&&&&&& OOOOOOOOOOOOO OOOOOOOOOOOOOOOOOOOOOO OOOOOOOO &&&&&&&&&&&&&&&&&&&",
"&&&&&&&&&&&&&&&&&&&&&&&&&&&&&&&&&& OOOOOOOOOOOOO OOOOOOOOOOOOOOOOOOOOOO OOOOOOOO &&&&&&&&&&&&&&&&&&&",
"&&&&&&&&&&&&&&&&&&&&&&&&&&&&&&&&& OOOOOOOOOOOOOO OOOOOOOOOOOOOOOOOOOOOO OOOOOOOOO &&&&&&&&&&&&&&&&&&",
"&&&&&&&&&&&&&&&&&&&&&&&&&&&&&&&& OOOOOOOOOOOOOOO OOOOOOOOOOOOOOOOOOOOOO OOOOOOOOO &&&&&&&&&&&&&&&&&&",
"&&&&                                             OOOOOOOOOOOOOOOOOOOOOO                             ",
"&&&&&&  +++++++++++++++++++ #################### OOOOOOOOOOOOOOOOOOOOOO ########################### ",
"&&&&&&&&  +++++++++++++++++                      OOOOOOOOOOOOOOOOOOOOO                              ",
"&&&&&&&&&&  ............... && oooooooooooooooooo OOOOOOOOOOOOOOOOOOO oooooooooooooo &&&&&&&&&&&&&&&",
"&&&&&&&&&&&&               && oooooooooooooooooooo OOOOOOOOOOOOOOOOO ooooooooooooooo &&&&&&&&&&&&&&&",
"&&&&&&&&&&&&&&&&&&&&&&&&&&&& OOOOOOOOOOOOOOOOOOOOoo OOOOOOOOOOOOOO  ooOOOOOOOOOOOOOOO &&&&&&&&&&&&&&",
"&&&&&&&&&&&&&&&&&&&&&&&&&&&& OOOOOOOOOOOOOOOOOOOOOoo OOOOOOOOOOO  oooOOOOOOO OOOOOOOO &&&&&&&&&&&&&&",
"&&&&&&&&&&&&&&&&&&&&&&&&&&& OOOOOOOOOOOOOOO OOOOOOOoo OOOOOOOOO oooOOOOOOOOO OOOOOOOO &&&&&&&&&&&&&&",
"&&&&&&&&&&&&&&&&&&&&&&&&&&& OOOOOOOOOOOOOOO OOOOOOOOoo         oooOOOOOOOOOO OOOOOOOOO &&&&&&&&&&&&&",
"&&&&&&&&&&&&&&&&&&&&&&&&&& OOOOOOOOOOOOOOOO OOOOOOOOOooooooooooooOOOOOOOOOOOo OOOOOOOO &&&&&&&&&&&&&",
"&&&&&&&&&&&&&&&&&&&&&&&&& OOOOOOOOOOOOOOOOO OOOOOOOOOOooooooooooOOOOOOOOOOOOoo OOOOOOOO &&&&&&&&&&&&",
"&&&&&&&&&&&&&&&&&&&&&&&& OOOOOOOOOOOOOOOOOO OOOOOOOOOOOOOOOOOOOOO OOOOOOOOOOOo OOOOOOO  &&&&&&&&&&&&",
"&&&&&&&&&&&&&&&&&&&&&&&& OOOOOOOOOOOOOOOOOO OOOOOOOOOOOOOOOOOOOOO OOOOOOOOOOOoo OOOOOO &&&&&&&&&&&&&",
"&&&&&&&&&&&&&&&&&&&&&&& OOOOOOOOOOOOOOOOOOO OOOOOOOOOOOOOOOOOOOOO OOOOOOOOOOOOoo      &&&&&&&&&&&&&&",
"&&&&&&&&&&&&&&&&&&&&&&& OOOOOOOOOOOOOOOOOOO OOOOOOOOOOOOOOOOOOOO oOOOOOOOOOOOO   &&&&&&&&&&&&&&&&&&&",
"&&&&&&&&&&&&&&&&&&&&&&&  OOOOOOOOOOOOOOOOO oOOOOOOOOOOOOOOOOOOOO oOOOOOOOOOOO  &&&&&&&&&&&&&&&&&&&&&",
"&&&&&&&&&&&&&&&&&&&&&&&&  OOOOOOOOOOOOOOO ooOOOOOOOOOOOOOOOOOOOO oOOOOOOOOOO &&&&&&&&&&&&&&&&&&&&&&&",
"&&&&&&&&&&&&&&&&&&&&&&&&& OOOOOOOOOOOOOO   oOOOOOOOOOOOOOOOOOOO ooOOOOOOOOO &&&&&&&&&&&&&&&&&&&&&&&&",
"&&&&&&&&&&&&&&&&&&&&&&&&& OOOOOOOO       &   OOOOOOOOOOO    OO ooOOOOOOOOO &&&&&&&&&&&&&&&&&&&&&&&&&",
"&&&&&&&&&&&&&&&&&&&&&&&&&&  O     &&&&&&&&&&    OOO     &&& OO       OOOO &&&&&&&&&&&&&&&&&&&&&&&&&&",
"&&&&&&&&&&&&&&&&&&&&&&&&&&&& &&&&&&&&&&&&&&&&&&&    &&&&&&&&  &&&&&&&    &&&&&&&&&&&&&&&&&&&&&&&&&&&",
"&&&&&&&&&&&&&&&&&&&&&&&&&&&&&&&&&&&&&&&&&&&&&&&&&&&&&&&&&&&&&&&&&&&&&&&&&&&&&&&&&&&&&&&&&&&&&&&&&&&&",
"&&&&&&&&&&&&&&&&&&&&&&&&&&&&&&&&&&&&&&&&&&&&&&&&&&&&&&&&&&&&&&&&&&&&&&&&&&&&&&&&&&&&&&&&&&&&&&&&&&&&",
"&&&&&&&&&&&&&&&&&&&&&&&&&&&&&&&&&&&&&&&&&&&&&&&&&&&&&&&&&&&&&&&&&&&&&&&&&&&&&&&&&&&&&&&&&&&&&&&&&&&&",
"&&&&&&&&&&&&&&&&&&&&&&&&&&&&&&&&&&&&&&&&&&&&&&&&&&&&&&&&&&&&&&&&&&&&&&&&&&&&&&&&&&&&&&&&&&&&&&&&&&&&",
"&&&&&&&&&&&&&&&&&&&&&&&&&&&&&&&&&&&&&&&&&&&&&&&&&&&&&&&&&&&&&&&&&&&&&&&&&&&&&&&&&&&&&&&&&&&&&&&&&&&&"
};
