/* XPM */
static char *_ba86fdf24ee4db0d501b78102757eb82wCJukucvtOnu0h0[] = {
/* columns rows colors chars-per-pixel */
"100 100 2 1 ",
"  c #40281F",
". c #492F24",
/* pixels */
"............ ...... ....................... ....................  .............................. ...",
"........... ....... ....................... .....................  ............................. ...",
"........... ....... ....................... ...................... ............................. ...",
".......        .... ........................ .....................  ............................ ...",
"......  ......    . ........................ ...................... ............................ ...",
"..... .........     ........................ ...................... ............................ ...",
"....  ............   ...................... ........................ ........................... ...",
".... ............... ...................... ........................ ...........................  ..",
" .. ................ ....................  .........................    ....................... ..  ",
".   .................   ................ ........................... .       ................. .....",
".. .....................    .........   ...........................  ........          ....... .....",
".. ....................... .         .............................. .........  .......  ....  ......",
".. .......................  ........ .............................. ........ .......... ...  .......",
".. ........................  ....... ............................. .......  ............    ........",
"..  ........................ ....... ............................. ....... ............. ...........",
"... ......................... ....... ..........................  ....... ............... ..........",
"...  ........................ .......   ........................ ........ ............... ..........",
".... ....................... ..........  .....................   ....... ................. .........",
".... ....................... ...........   ..................  ......... .................  ........",
"..... ...................... .............  ................  ......... ................... ........",
"..... ....................  ................    .........   ........... ................... ........",
"...... ..................  ....................          .............. ................... ........",
"...... ................   .....................  ...................... .................... .......",
"....... ..............  ....................... ....................... .................... .......",
".......  ..........   ......................... ....................... .................... .......",
"........            ...........................  ...................... .................... .......",
"........ ........ .............................. ...................... .................... .......",
"......  ......... .............................. .....................   ................... .......",
".....  .......... ............................. .....................  . ................... .......",
"...  ............. ............................ .      ...........   .... .................. .......",
"      ............ ...........................    ....   ........  ......  ................. .......",
" ..... ........... ........................... .........  ......  ........ ................. ...... ",
"....... .......... .......................... ............  ... ........... ...............  ..... .",
".......  .........  ......................   ..............  .  ...........    ............ ....  ..",
"......... ......... ....................    .................  ...............     ......        ...",
".......... .....     .................  .... ................  ...................        ...... ...",
".......... ...  .... ...............  ...... ................. ....................   ......... ....",
"..........  .  ..... ............   ........ ................. ..................... .......... ....",
"...........   ....... ........   ........... ................. ..................... ......... .....",
"............  .......    ..   .............. ................. ..................... ......... .....",
"..............  ........   .. ............. .................. ...................... ........ .....",
"................  ........... ............  .................  ...................... ........ .....",
"................. ...........  ...........  ................  ....................... ........ .....",
"................. ............  .........    ..............  ........................ ........ .....",
"................ ............... ......  ....  ..........  ......................... .........  ....",
"................ ...............   ... ........ ........  .......................... .......... ....",
"...............  .................    .......... ...      .......................... ........... ...",
"..............  ................. .............. ..  .....  ....................       .......... ..",
".............. .................. ..............    ........ ................   .......     ...... .",
"............. .................. ...............  ........... .............. ..............   .... .",
"............. .................. ................ ............ ............. ................ ....  ",
"............  .................. ............... .............. ..........  .................  .  ..",
" ........... ................... ............... .............. ......... ....................   ...",
". ......... .................... ............... ............... ....... ...................  ......",
"..  .....  ..................... ............... ................ ..... ..................  ........",
"...       ...................... .............. .................  ... ..................  .........",
"......... ....................   .............  ..................  .  .................. ..........",
".......... ............       ... ............ ....................   .................. ...........",
"........... .........   ......... ............  ....................  .................. ...........",
"........... .......  ............ ........... . .................... .................. ............",
"............ .....  .............. ......... .. .................... .................. ............",
"............  .... ................  ....... ... .............        ................. ............",
".............  ..  .................. ..... .... ...........  ....... ................. ............",
"..............  . ...................      ..... ..........  ........  ................ ............",
"...............   ..................  .......... .......... ..........  ............... ............",
"................  ................  ............ ......... ............ ............... ............",
"................. ................  ............ ......... .............  ............. ............",
".................. ..............  .............  ........ .............. ............. ............",
".................. .............. ............... ....... ................ ............ ............",
"................... ............. ................  ..... ................. ........... ............",
"................... ............. ..................  ... .................   ...       ............",
"................... ............. ................    ...  ..................    .......     .......",
".................... ...........  ................ ..      .................. ............... ......",
".................        ....... ................. ....... ................. ................  .....",
"................ ........ ...... ................  ....... ................. .................  ....",
"..............  .........  ..... ......  ........ ........  ............... ................... ....",
".............. ............  ...        .   .... .......... ............... ...................  ...",
"............. ..............  .....  .......    ...........  .............. .................... ...",
"............ ................. ...  ........  .............. ............. ...................... ..",
"........... ..................    .........    .............  ............ ...................... ..",
"........... .................. ........... ....   ...........  .           ...................... ..",
"..........  ................... ......... .......  ..........   .......... ...................... ..",
".......... .................... ........ ..........  .......  ............ ..................... ...",
"......... ..................... ....... .............  ..... ............. ..................... ...",
"......... ..................... ......  ..............  ... .............. .................... ....",
"......... ..................... ...... ................  . ................ ..................  ....",
"........  ..................... .....  ................. . ................  ................   ....",
"          ..................... ....  .................. . .................. ..............  ..    ",
"........ .....................      . ................... ...................  ............  .......",
"........ ..................   ......  ................... .....................  ......    .........",
"........ ................     ....... ..................  ......................  ..    ...  .......",
"......... .............   ............  ................ .......................    ........  ......",
".........  ..........  ................. ............... ....................... ............. .....",
"...........   ....... .................. ............... ...................... ............... ....",
"............    .... ................... ...............  ..................... ...............  ...",
"............ ..      .................... ...............  ...................  ................. ..",
"............ ....... .................... ................  .................  .................. ..",
"............ ....... ..................... ................    ...........   .................... ..",
"............ ...... ...................... .................    ......... ....................... ..",
"............ ...... ....................... ..................           ....................... ..."
};
