/* XPM */
static char *result[] = {
/* columns rows colors chars-per-pixel */
"100 100 12 1 ",
"  c black",
". c gray13",
"X c #0C421B",
"o c #464646",
"O c #990030",
"+ c #ED1C24",
"@ c #0E802C",
"# c #07B833",
"$ c #00D131",
"% c #00FF48",
"& c white",
"* c None",
/* pixels */
"**************************************oo*******************ooo**************************************",
"*************************************o o*******************o  o*************************************",
"************************************o  o*******************o   o************************************",
"***********************************o   o*******************o   o************************************",
"***********************************o   o*******************o   o************************************",
"***********************************o   o***ooooooooooooo***o   o************************************",
"***********************************o   oooo             oooo   o************************************",
"***********************************o    o                 o    o************************************",
"********************************oooo     o               o     oooo*********************************",
"******************************oo   o     o               o     o   oo*******************************",
"****************************oo     o      o             o      o     oo*****************************",
"**************************oo       o       oo         oo       o       oo***************************",
"*************************o         o         o       o        o          o**************************",
"***********************oo           o         o     o         o           oo************************",
"**********************o     %       o          o   o          o      %      o***********************",
"********************oo       %      o           o o          o      %        oo*********************",
"*******************o         %       o          o o          o      %          o********************",
"******************o      %    %      o     %     o    %     o      %    %       o*******************",
"*****************o      % %    %      o   %%%%      %%%%    o     %    % %       o******************",
"****************o       %  %   %      o   %%%%%    %%%%%   o      %   %  %        o*****************",
"***************o        %  %    %      o  %%%%%%  %%%%%%  o      %    %  %         o****************",
"**************o          %%%%%%%        o  %%%%%  %%%%%  o        %%%%%%%           o***************",
"*************o             %         ooo&o  %%%    %%%  ooooo         %              o**************",
"*************o             %       oo +&&&o            o +&&&ooo      %              o**************",
"************o                    oo%% ++&&&o          o% +&&&&&+o                     o*************",
"***********o          %        oo%%%%% +&&&&o         o% ++&&&+ %oo        %           o************",
"**********o           %      oo%%%%%%% +&&&&o        o%%% +&&++ %%%oo      %            o***********",
"**********o          %%    oo%%%%%%%%% +&&&++o      o%%%% +&++ %%%%%%oo    %%           o***********",
"*********o      %%%%%%    o%%%%%%%%%%% ++&&+ %o    o%%%%% +++ %%%%%%%%%o    %%%%%%       o**********",
"*********o               o%%%%%%%%%%%%% +&&+ %%o oo%%%%%% ++ %%%%%%%%%%%oo               o**********",
"********o              oo%%%%%%%%%%%%%% +*++ %%%oo%%%%%%% + %%%%%%%%%%%%%%o               o*********",
"*******o              o$$%%%%%%%%%%%%%%% ++ %%%%%%%%%%%%%  %%%%%%%%%%%%%%%Oo               o********",
"*******o   %  %      o$$$$%%%%%%%%%%%%%% ++ %%%%%%%%%%%%% %%%%%%%%%%%%%%%% +o      %  %    o********",
"*******o   %  %     o $$$$%%%%%%%%%%%%%%%  %%%%%%%%%%%%%%%%%%%%%%%%%%%%%%%  %o     %  %    o********",
"******o %%%%%%     o+ $$$$$%%%%%%%%%%%%%%% %%%%%%%%%%%%%%%%%%%%%%%%%%%%%%% %%%o     %%%%%%  o*******",
"******o    %       o $$$$$$%%%%%%%%%%%%%%%%%%%%%%%%%%%%%%%%%%%%%%%%%%%%%%%%%%%%o      %     o*******",
"*****o     %      o  $$$$$$$$%%%%%%%%%%%%%%%%%%%%%%%%%%%%%%%%%%%%%%%%%%%%%%%%  o      %      o******",
"*****o           o$$ $$$$$$$$$%%%%%%%%%%%%%%%%%%%%%%%%%%%%%%%%%%%%%%%%%%%%      o            o******",
"*****o          o$$$$$$$$$$$$$$$%%%%%%%%%%%%%%%%%%%%%%%%%%%%%%%%%%%%%%%      %%%%o           o******",
"****o          o$$$$$$$$$$$$$$$$$$%%%%%%%%%%%%%%%%%%%%%%%%%%%%%%%%%%       %%%%%%%o           o*****",
"****o          o$$$$$$$$$$$$$$$$$$$$$%%%%%%%%%%%%%%%%%%%%%%%%%%%%%        %%%%%%$$o           o*****",
"****o %        o$$$$$$$$$$$$$$$$$$$$$$$$%%%%%%%%%%%%%%%%%%%%%%%         %%%%%%$$$$$o       %  o*****",
"***o  %       o##$$$$$$$$$$$$$$$$$$$$$$$$$$%%%%%%%%%%%%%%%%%%%        %%%%%%%$$$$$$$o      %   o****",
"***o  %       o###$$$$$$$$$$$$$$$$$$$$$$$$$$$$%%%%%%%%%%%%%%        %%%%%%$$$$$$$$$$o      %   o****",
"***o  %      o#####$$$$$$$$$$$$$$$$$$$$$$$$$$$$$$$%%%%%%%%         %%%$$$$$$$$$$$$$$o      %   o****",
"***o %%%%    o######$$$$$$$$$$$$$$$$$$$$$$$$$$$$$$$$$$$$          $$$$$$$$$$$$$$$$$$o    %%%%  o****",
"***o  %     o########$$$$$$$$$$$$$$$$$$$$$$$$$$$$$$$$$$         o$$$$$$$$$$$$$$$$$$$$o     %   o****",
"**o  %      o#########$$$$$$$$$$$$$$$$$$$$$$$$$$$$$$$$          o$$$$$$$$$$$$$$$$$$$$o      %   o***",
"**o %      o###########$$$$$$$$$$$$$$$$$$$$$$$$$$$$$$          o$$$$$$$$$$$$$$$$$$$$##o      %  o***",
"**o %      o#############$$$$$$$$$$$$$$$$$$$$$$$$$$o          o$$$$$$$$$$$$$$$$$$$$###o      %  o***",
"**o  %     o##############$$$$$$$$$$$$$$$$$$$$$$$$o           o$$$$$$$$$$$$$$$$$$$####o     %   o***",
"**o   %%  o##################$$$$$$$$$$$$$$$$$$$$o           o$$$$$$$$$$$$$$$$$$#######o  %%    o***",
"**o       o#####################$$$$$$$$$$$$$$$$o            o$$$$$$$$$$$$$$$$#########o        o***",
"**o       o#########################$$$$$$$$$$oo            .$$$$$$$$$$$$$$$###########o        o***",
"**o       o@@##########################$$$$$$$o            ..$$$$$$$$$$$$$#############o        o***",
"**o      o@@@@##############################$.            ..$$$$$$$$$$$#################o       o***",
"**o  %%% o@@@@@#############################..            ..$$$$$$$#####################o %%%   o***",
"**o %  % o@@@@@@@##########################..             ...###########################o %  %  o***",
"**o %  % o@@@@@@@@@#######################...             ...###########################o %  %  o***",
"**o %  % o@@@@@@@@@@@####################...              ...###########################o %  %  o***",
"**o    % o@@@@@@@@@@@@@@@###############....              ...###########################o %     o***",
"**o    % o@@@@@@@@@@@@@@@@@@###########....                ..###########################o %     o***",
"***o   % o@@@@@@@@@@@@@@@@@@@@########....                 ..##########################@o %    o****",
"***o   % o@@@@@@@@@@@@@@@@@@@@@@@@###....                  ..########################@@@o %    o****",
"***o   % oX@@@@@@@@@@@@@@@@@@@@@@@@@.....                   .######################@@@@@o %    o****",
"***o     oXX@@@@@@@@@@@@@@@@@@@@@@......                    ..#################@@@@@@@@@o      o****",
"***o     oXXXX@@@@@@@@@@@@@@@@@@@......                     ...#########@@@@@@@@@@@@@@@@o      o****",
"****o     oXXXXX@@@@@@@@@@@@@@@@......                       ..@@@@@@@@@@@@@@@@@@@@@@@@o      o*****",
"****o     oXXXXXXX@@@@@@@@@@@@@......                        ...@@@@@@@@@@@@@@@@@@@@@@@o      o*****",
"****o     oXXXXXXXXX@@@@@@@@@@......                         ...@@@@@@@@@@@@@@@@@@@@@@@o      o*****",
"*****o%   oXXXXXXXXXXXX@@@@@.......                           ...@@@@@@@@@@@@@@@@@@@@@@o   % o******",
"*****o %   oXXXXXXXXXXXXX@@......                              ..@@@@@@@@@@@@@@@@@@@@@o   %  o******",
"*****o  %  oXXXXXXXXXXXXXXX......                              ...@@@@@@@@@@@@@@@@@@@@o  %   o******",
"******o  %  oXXXXXXXXXXXXX......                               ....@@@@@@@@@@@@@@@@@@o  %   o*******",
"******o  %  oXXXXXXXXXXXX......                                 ...@@@@@@@@@@@@@@@@@Xo  %   o*******",
"*******o  % oXXXXXXXXXX.......                                  ....@@@@@@@@@@@@@@XXXo %   o********",
"*******o%%   oXXXXXXXXX.......                                   ...@@@@@@@@@@@XXXXXo   %% o********",
"*******o     oXXXXXXXX.......                                    .....@@@@@@@XXXXXXXo      o********",
"********o     oXXXXXX........                                     .....@XXXXXXXXXXXXo     o*********",
"*********o    oXXXXX........                                       .....XXXXXXXXXXXo     o**********",
"*********o     oX..........                                         .....XXXXXXXXXXo     o**********",
"**********o    o..........                                          ......XXXXXXXXo     o***********",
"**********o %   o........                                             .....XXXXXXo   %  o***********",
"***********o %  o........           ++++                               ......XXXXo  %  o************",
"************o %  o.....            ++&+             +                   ......XXo  %  o*************",
"*************o %  o...            ++&&+             +                 +  ......o  %  o**************",
"*************o     o.            ++&&&+             +                 +    ...o      o**************",
"**************o     o            +&&&&+             ++                ++    ..o     o***************",
"***************o    o           ++&&&&+             ++                +++    o     o****************",
"****************o    oo         +&&&&&+             +&+               +&+   o     o*****************",
"*****************o     o       ++&&&&&+             +&+               +&+ oo     o******************",
"******************o     o     +++&&&&&+             +&++              +&&+o     o*******************",
"*******************o     o    ++&&&&&&+             +&&+             ++&oo     o********************",
"********************oo    o   +&&&&&&&+            ++&&+            ++&o     oo*********************",
"**********************o    oo++&&&&&&&+            +&&&+           ++oo     o***********************",
"***********************oo    oo&&&&&&++           ++&&&+           oo     oo************************",
"*************************o     oo&&&&+            +*&&&+         oo      o**************************",
"**************************oo     oooooooooooooooooooooooooooooooo      oo***************************",
"****************************oo                                       oo*****************************",
"******************************ooooooooooooooooooooooooooooooooooooooo&&*****************************"
};
