/* XPM */
static char *result[] = {
/* columns rows colors chars-per-pixel */
"100 100 8 1 ",
"  c black",
". c #464646",
"X c #990030",
"o c #ED1C24",
"O c #F0414A",
"+ c #00FF48",
"@ c white",
"# c None",
/* pixels */
"######################################..###################...######################################",
"#####################################. .###################.  .#####################################",
"####################################.  .###################.   .####################################",
"###################################.   .###################.   .####################################",
"###################################.   .###################.   .####################################",
"###################################.   .###.............###.   .####################################",
"###################################.   ....             ....   .####################################",
"###################################.    .                 .    .####################################",
"################################....     .               .     ....#################################",
"##############################..   .     .               .     .   ..###############################",
"############################..     .      .             .      .     ..#############################",
"##########################..       .       ..         ..       .       ..###########################",
"#########################.         .         .       .        .          .##########################",
"#######################..           .         .     .         .           ..########################",
"######################.     +       .          .   .          .      +      .#######################",
"####################..       +      .           . .          .      +        ..#####################",
"###################.         +       .          . .          .      +          .####################",
"##################.      +    +      .     +     .    +     .      +    +       .###################",
"#################.      + +    +      .   + ++      ++ +    .     +    + +       .##################",
"################.       +  +   +      .   +   +    +   +   .      +   +  +        .#################",
"###############.        +  +    +      .  +    +  +    +  .      +    +  +         .################",
"##############.          +++++++        .  +   +  +   +  .        +++++++           .###############",
"#############.             +         ...O.  +++    +++  .....         +              .##############",
"#############.             +       ..OOOOO.            .OOOOO...      +              .##############",
"############.                    ..OOOOOOOO.          .OOOOOOOOO.                     .#############",
"###########.          +        ..OOOOOOOOOOO.         .OOOOOOOOOO..        +           .############",
"##########.           +      ..OOOOOOOOOOOOO.        .OOOOOOOOOOOOO..      +            .###########",
"##########.          ++    ..OOOOOOOOOOOOOOOO.      .OOOOOOOOOOOOOOOO..    ++           .###########",
"#########.      ++++++    .OOOOOOOOOOOOOOOOXOO.    .OOOOOOOOOOOOOOOOOOO.    ++++++       .##########",
"#########.               .OOOOOOOOOOOOOOOOOXOOO. ..OOOOOOOXOOOOOOOOOOOOO..               .##########",
"########.              ..OOOOOOOOOOOOOOOOOXOOOOO..OOOOOOOOXOOOOOOOOOOOOOOO.               .#########",
"#######.              .OOOOOOOOOOOOOOOOOOXOOOOOOOOOOOOOOOOXOOOOOOOOOOOOOOOO.               .########",
"#######.   +  +      .OOOOOOOOOOOOOOOOOOOXOOOOOOOOOOOOOOOOXOOOOOOOOOOOOOOOOO.      +  +    .########",
"#######.   +  +     .OOOOOOOOOOOOOOOOOOOOXOOOOOOOOOOOOOOOOXOOOOOOOOOOOOOOOOOO.     +  +    .########",
"######. ++++++     .OOOOOOOOOOOOOOOOOOOOOXOOOOOOOOOOOOOOOOOXOOOOOOOOOOOOOOOOOO.     ++++++  .#######",
"######.    +       .OOOOOOOOOOOOOOOOOOOOOXOOOOOOOOOOOOOOOOOXOOOOOOOOOOOOOOOOOOO.      +     .#######",
"#####.     +      .OOOOOOOOOOOOOOOOOOOOOOXOOOOOOOOOOOOOOOOOXOOOOOOOOOOOOOOOOOOO.      +      .######",
"#####.           .OOOOOOOOOOOOOOOOOOOOOOXOOOOOOOOOOOOOOOOOOXOOOOOOOOOOOOOOOOOXOO.            .######",
"#####.          .OOOOOXOOOOOOOOOOOOOOOOOXOOOOOOOOOOOOOOOOOOXOOOOOOOOOOOOOOOOOXOOO.           .######",
"####.          .OOOOOOXOOOOOOOOOOOOOOOOOXOOOOOOOOOOOOOOOOOOXOOOOOOOOOOOOOOOOOXOOOO.           .#####",
"####.          .OOOOOOXOOOOOOOOOOOOOOOOOXOOOOOOOOOOOOOOOOOOXOOOOOOOOOOOOOOOOOXOOOO.           .#####",
"####. +        .OOOOOXOOOOOOOOOOO    OOOXOOOOOOOO OOOOOOOOOXOOOOOOOOOOOOOOOOOXOOOOO.       +  .#####",
"###.  +       .OOOOOOXOOOOOOOOOO oooo OOXOOOOOOO  OOOOOOOOOXOOOOOO OOOOOOOOOOXOOOOOO.      +   .####",
"###.  +       .OOOOOXOOOOOOOOOO oo@o OOOXOOOOOOO o OOOOOOOOXOOOOOO  OOOOOOOOOXOOOOOO.      +   .####",
"###.  +      .OOOOOOXOOOOOOOOO oo@@o OOOXOOOOOOO o OOOOOOOOXOOOOOO o OOOOOOOXOOOOOOO.      +   .####",
"###. ++++    .OOOOOXOOOOOOOOO oo@@@o OOOOXOOOOOO o OOOOOOOXOOOOOOO o OOOOOOOXOOOOOOO.    ++++  .####",
"###.  +     .OOOOOOXOOOOOOOOO o@@@@o OOOOOOOOOOO oo OOOOOOXOOOOOOO oo OOOOOOXOOOOOOOO.     +   .####",
"##.  +      .OOOOOOXOOOOOOOO oo@@@@o OOOOOOOOOOO oo OOOOOOOOOOOOOO ooo OOOOOXOOOOOOOO.      +   .###",
"##. +      .OOOOOOOXOOOOOOOO o@@@@@o OO     OOOO o@o OOOOOOOOOOOOO o@o OOOOXOOOOOOOOOO.      +  .###",
"##. +      .OOOOOOOOXOOOOOO oo@@@@@o O ooooo OOO o@o OOOO   OOOOOO o@o OOOOOOOOOOOOOOO.      +  .###",
"##.  +     .OOOOOOOOXOOOOO ooo@@@@@o  oo@@@o OOO o@oo OO ooo  OOOO o@@o OO   OOOOOOOOO.     +   .###",
"##.   ++  .OOOOOOOOOXOOOOO oo@@@@@@o oo@@@@o OOO o@@o O oo@ooo OO oo@@o O ooo OOOOOOOOO.  ++    .###",
"##.       .OOOOOO   OOOOOO o@@@@@@@o o@@@@@o OO oo@@o  oo@@@@o O oo@@@oo oo@@o OOOOOOOO.        .###",
"##.       .OOOOOO oo  OOO oo@@@@@@@o o@@@@@oo O o@@@o ooo@@@@oo oo@@@@@o o@@@@o OOOOOOO.        .###",
"##.       .OOOOO ooooo OO o@@@@@@@oo o@@@@@@o  oo@@@o  o@@@@@@o o@@@@@@o o@@@@o OOOOOOO.        .###",
"##.      .OOOOO oo@@@oo  oo@@@@@@@o oo@@@@@@o  oO@@@o  o@@@@@@o o@@@@@@o o@@@@o OOOOOO  .       .###",
"##.  +++ .OOOO oo@@@@@o  o@@@@@@@@o o@@@@@@@o oo@@@@o  o@@@@@@o o@@@@@oo o@@@@o OOOO  OO. +++   .###",
"##. +  + .OOOO o@@@@@@oo oo@@@@@@@o  @@@@@@@o o@@@@@o X o@@@@@o o@@@@@o  ooO@@o     OOOO. +  +  .###",
"##. +  + .OOOO o@@@@@@@o  o@@@@@@oo  o@@@@@@o o@@@@o XX o@@@@@o  o@@@oo X oo@@o OOOOOOOO. +  +  .###",
"##. +  + . OOO o@@@@@@@o  o@@@@@oo X oo@@@@oo o@@@oo XX o@@@@@o  oo@oo XXX o@@o OOOOOOOO. +  +  .###",
"##.    + .O    o@@@@@@oo X @@@@oo XXX o@@@@o  o@@oo XXX oo@@@o XX ooo XOXX o@oo OOOOOOOO. +     .###",
"##.    + .OOOO o@@@@@@o XX ooooo XOOX o@@@@o X ooo XXOXX o@@oo OXX   XOOOX o@o XOOOOOOOO. +     .###",
"###.   + .OOOO oo@@@@oo XXX     XOOOX o@@@oo XX   XXOOXX o@oo XOXXXXXOOOOX ooo XOOOOOOOO. +    .####",
"###.   + .OOOOX o@@@@o XOOXXXXXXOOOOO oo@@o XXXXXXXOOOOX ooo XXOOXXXOOOOOX oo XOOOOOOOOO. +    .####",
"###.   + .OOOOX o@@@@o XOOOOOOOOOOOOOX o@@o XOOOOOOOOOOX oo XXOOOOOOOOOOOX oo XOOOOOOOOO. +    .####",
"###.     .OOOOX o@@@oo OOOOOOOOOOOOOOX oOoo XOOOOOOOOOOX o XXXOOOOOOOXOOOX o XOOOOOOOOOO.      .####",
"###.     .OOOOX oo@@o XOOOOOOOOOOOOOOOX oo XOOOXOOOOOOOX  XXXOOOOOOOOXOOXX o XOOOOOOOOOO.      .####",
"####.     .OOOXX o@o XOOOOOXOOOOOOOOOOX oo XOOOXOOOOOOOX  XOOOOOOOOOOXOOX o XOOOOOOOOOO.      .#####",
"####.     .OOOOX ooo XOOOOOXOOOOOOOOOOXX  XOOOOXOOOOOOOX XXOOOOOOOOOOXOOX  XXOOOOOOOOOO.      .#####",
"####.     .OOOOOX oo XOOOOOXOOOOOOOOOOOXX XOOOOXOOOOOOOXXXOOOOOOOOOOOOXOX XXOOOOOOOOOOO.      .#####",
"#####.+   .OOOOOX o XOOOOOOXOOOOOOOOOOOOXXOOOOOXOOOOOOOXXOOOOOOOOOOOOOXOXXXOOOOOOOOOOOO.   + .######",
"#####. +   .OOOOOX  XOOOOOOXOOOOOOOOOOOOOXOOOOOXOOOOOOOXOOOOOOOOOOOOOOXOXXOOOOOOOOOOOO.   +  .######",
"#####.  +  .OOOOOXX XOOOOOOXOOOOOOOOOOOOOOOOOOOXOOOOOOOOOOOOOOOOOOOOOOXOXOOOOOOOOOOOOO.  +   .######",
"######.  +  .OOOOOXXXOOOOOOXOOOOOOOOOOOOOOOOOOOXOOOOOOOOOOOOOOOOOOOOOOXOOOOOOOOOOOOOO.  +   .#######",
"######.  +  .OOOOOOXXOOOOOOXOOOOOOOOOOOOOOOOOOOXOOOOOOOOOOOOOOOOOOOOOXOOOOOOOOOOOOOOO.  +   .#######",
"#######.  + .OOOOOOOXOOOOOOXOOOOOOOOOOOOOOOOOOOXOOOOOOOOOOOOOOOOOOOOOXOOOOOOOOOOOOOOO. +   .########",
"#######.++   .OOOOOOOOOOOOOXOOOOOOOOOOOOOOOOOOOXOOOOOOOOOOOOOOOOOOOOOXOOOOOOOOOOOOOO.   ++ .########",
"#######.     .OOOOOOOOOOOOOXOOOOOOOOOOOOOOOOOOOXOOOOOOOOOOOOOOOOOOOOOXOOOOOOOOOOOOOO.      .########",
"########.     .OOOOOOOOOOOOXOOOOOOOOOOOOOOOOOOOXOOOOOOOOOOOOOOOOOOOOXOOOOOOOOOOOOOOO.     .#########",
"#########.    .OOOOOOOOOOOOXOOOOOOOOOOOOOOOOOOOXOOOOOOOOOOOOOOOOOOOOXOOOOOOOOOOOOOO.     .##########",
"#########.     .OOOOOOOOOOOXOOOOOOOOOOOOOOOOOOOXOOOOOOOOOOOOOOOOOOOOXOOOOOOOOOOOOOO.     .##########",
"##########.    .OOOOOOOOOOOOXOOOOOOOOOOOOOOOOOOXOOOOOOOOOOOOOOOOOOOXOOOOOOOOOOOOOO.     .###########",
"##########. +   .OOOOOOOOOOOXOOOOOOOOOOOOOOOOOOXOOOOOOOOOOOOOOOOOOOXOOOOOOOOOOOOO.   +  .###########",
"###########. +  .OOOOOOOOOOOOXOOOOOOOOOOOOOOOOOXOOOOOOOOOOOOOOOOOOXOOOOOOOOOOOOOO.  +  .############",
"############. +  .OOOOOOOOOOOXOOOOOOOOOOOOOOOOOOXOOOOOOOOOOOOOOOOOXOOOOOOOOOOOOO.  +  .#############",
"#############. +  .OOOOOOOOOOOXOOOOOOOOOOOOOOOOOXOOOOOOOOOOOOOOOOXOOOOOOOOOOOOO.  +  .##############",
"#############.     .OOOOOOOOOOXOOOOOOOOOOOOOOOOOXOOOOOOOOOOOOOOOOXOOOOOOOOOOOO.      .##############",
"##############.     .OOOOOOOOOOXOOOOOOOOOOOOOOOOXOOOOOOOOOOOOOOOXOOOOOOOOOOOOO.     .###############",
"###############.    .OOOOOOOOOOOXOOOOOOOOOOOOOOOXOOOOOOOOOOOOOOXOOOOOOOOOOOOO.     .################",
"################.    ..OOOOOOOOOOXOOOOOOOOOOOOOOXOOOOOOOOOOOOOOXOOOOOOOOOOOO.     .#################",
"#################.     .OOOOOOOOOXOOOOOOOOOOOOOOXOOOOOOOOOOOOOXOOOOOOOOOOO..     .##################",
"##################.     .OOOOOOOOOOOOOOOOOOOOOOOXOOOOOOOOOOOOXOOOOOOOOOOOO.     .###################",
"###################.     .OOOOOOOOOOOOOOOOOOOOOOOXOOOOOOOOOOXOOOOOOOOOOO..     .####################",
"####################..    .OOOOOOOOOOOOOOOOOOOOOOXOOOOOOOOXXOOOOOOOOOOO.     ..#####################",
"######################.    ..OOOOOOOOOOOOOOOOOOOOOOOOOOOOOOOOOOOOOOOO..     .#######################",
"#######################..    ..OOOOOOOOOOOOOOOOOOOOOOOOOOOOOOOOOOOO..     ..########################",
"#########################.     ..OOOOOOOOOOOOOOOOOOOOOOOOOOOOOOOO..      .##########################",
"##########################..     ................................      ..###########################",
"############################..                                       ..#############################",
"##############################.......................................###############################"
};
